<?xml version="1.0" encoding="utf-8"?>
<!-- Generator: Adobe Illustrator 27.0.0, SVG Export Plug-In . SVG Version: 6.00 Build 0)  -->
<svg version="1.1" id="Layer_1" xmlns="http://www.w3.org/2000/svg" xmlns:xlink="http://www.w3.org/1999/xlink" x="0px" y="0px"
	 viewBox="0 0 1200 1200" style="enable-background:new 0 0 1200 1200;" xml:space="preserve">
<style type="text/css">
	.st0{fill:url(#SVGID_1_);}
	.st1{fill:url(#SVGID_00000176039395452071448710000014740911925541575073_);}
	.st2{fill:url(#SVGID_00000020370264743607871080000013923958279208841648_);}
	.st3{fill:url(#SVGID_00000124122716110530521640000008313530228994045860_);}
	.st4{fill:url(#SVGID_00000134226071180359911390000001762396193703160208_);}
	.st5{fill:url(#SVGID_00000048475263332616076130000008860909900017281709_);}
	.st6{fill:url(#SVGID_00000012435915862261046610000002170246625502020240_);}
	.st7{fill:url(#SVGID_00000048467268590571571140000005691196757019879350_);}
	.st8{fill:url(#SVGID_00000090288787035045013860000015758716690792307115_);}
	.st9{fill:url(#SVGID_00000083782059365641777710000014051790687596682139_);}
	.st10{fill:url(#SVGID_00000039099989074020756380000012001913900644479643_);}
	.st11{fill:url(#SVGID_00000033331834246118610150000017664184705829867434_);}
	.st12{fill:url(#SVGID_00000125579086784727294590000017973757015934316203_);}
	.st13{fill:url(#SVGID_00000152259525386445364100000012020903102120628658_);}
	.st14{fill:url(#SVGID_00000102535778629060913780000007606405104557895597_);}
	.st15{opacity:0.36;fill:#231F20;}
	.st16{fill:url(#SVGID_00000025445024592359622380000010114618331717658777_);stroke:#231F20;stroke-miterlimit:10;}
	.st17{fill:#1C0040;}
	.st18{font-family:'HPSimplifiedHans-Regular';}
	.st19{font-size:57.9307px;}
	.st20{fill:#000655;}
	.st21{fill:#000655;stroke:#262262;stroke-miterlimit:10;}
</style>
<g>
	<g>
		<g>
			<g>
				<g>
					<g>
						<g>
							
								<linearGradient id="SVGID_1_" gradientUnits="userSpaceOnUse" x1="148.801" y1="2191.9111" x2="176.1221" y2="2181.635" gradientTransform="matrix(-0.565 0.8251 -0.8251 -0.565 2335.7314 1867.9967)">
								<stop  offset="0" style="stop-color:#FFFFFF"/>
								<stop  offset="0.0179" style="stop-color:#F8F9FA"/>
								<stop  offset="0.1631" style="stop-color:#C2CBD3"/>
								<stop  offset="0.3051" style="stop-color:#96A4B2"/>
								<stop  offset="0.4407" style="stop-color:#738799"/>
								<stop  offset="0.5684" style="stop-color:#5A7187"/>
								<stop  offset="0.685" style="stop-color:#4B647C"/>
								<stop  offset="0.7802" style="stop-color:#466078"/>
							</linearGradient>
							<path class="st0" d="M452.52,763.44c-1.28-1.01-3.42-2.83-6.19-5.67c-2.14,2.35-10.96,11.22-18.29,6.56
								C431.22,770.17,438.49,777.27,452.52,763.44z"/>
							
								<linearGradient id="SVGID_00000036969904349195066780000004126563336117802126_" gradientUnits="userSpaceOnUse" x1="37.0493" y1="2220.1199" x2="28.1328" y2="2244.9121" gradientTransform="matrix(-0.565 0.8251 -0.8251 -0.565 2335.7314 1867.9967)">
								<stop  offset="0" style="stop-color:#FFFFFF"/>
								<stop  offset="0.0179" style="stop-color:#F8F9FA"/>
								<stop  offset="0.1631" style="stop-color:#C2CBD3"/>
								<stop  offset="0.3051" style="stop-color:#96A4B2"/>
								<stop  offset="0.4407" style="stop-color:#738799"/>
								<stop  offset="0.5684" style="stop-color:#5A7187"/>
								<stop  offset="0.685" style="stop-color:#4B647C"/>
								<stop  offset="0.7802" style="stop-color:#466078"/>
							</linearGradient>
							<path style="fill:url(#SVGID_00000036969904349195066780000004126563336117802126_);" d="M474.6,644.99
								c1.45-0.51,2.92-0.96,4.4-1.36c-1.01-3-4.47-15.04,3.18-19.18c-6.66-0.06-16.41,2.83-11.15,21.84
								C472.26,645.8,473.47,645.37,474.6,644.99z"/>
							
								<radialGradient id="SVGID_00000003083231243928533040000009637551650588498821_" cx="76.6056" cy="2089.0972" r="85.0494" gradientTransform="matrix(-0.565 0.8251 -0.8251 -0.565 2335.7314 1867.9967)" gradientUnits="userSpaceOnUse">
								<stop  offset="0" style="stop-color:#FFFFFF"/>
								<stop  offset="0.0243" style="stop-color:#F5F6F8"/>
								<stop  offset="0.1476" style="stop-color:#C7CFD6"/>
								<stop  offset="0.2754" style="stop-color:#9FADB9"/>
								<stop  offset="0.4061" style="stop-color:#7F91A1"/>
								<stop  offset="0.5405" style="stop-color:#667B8F"/>
								<stop  offset="0.6801" style="stop-color:#546C82"/>
								<stop  offset="0.8284" style="stop-color:#49637A"/>
								<stop  offset="1" style="stop-color:#466078"/>
							</radialGradient>
							<path style="fill:url(#SVGID_00000003083231243928533040000009637551650588498821_);" d="M501.41,772.67
								c0.03,0,0.07,0.01,0.12,0.01c0.06,0.01,0.12,0.01,0.2,0.02c0.08,0.01,0.17,0.02,0.28,0.03c0.1,0.01,0.2,0.02,0.32,0.03
								c0.01,0,0.03,0.01,0.05,0.01c0.1,0.01,0.21,0.02,0.32,0.03c0.04,0.01,0.09,0.01,0.12,0.01c0.1,0.01,0.2,0.02,0.32,0.03
								c0.04,0,0.08,0,0.12,0.01c0.12,0.01,0.24,0.02,0.37,0.03c0.01,0,0.01,0,0.02,0c0.04,0,0.08,0,0.12,0.01
								c0.13,0.01,0.27,0.02,0.41,0.03c0.08,0.01,0.16,0.01,0.23,0.02c0.12,0.01,0.23,0.01,0.35,0.02c0.11,0.01,0.23,0.01,0.35,0.02
								c0.09,0.01,0.19,0.01,0.29,0.01c0.14,0.01,0.28,0.01,0.43,0.02c0.09,0.01,0.18,0.01,0.27,0.01c0.04,0,0.07,0,0.11,0.01
								c0.11,0,0.22,0.01,0.34,0.01c0.1,0,0.2,0.01,0.31,0.01c0.14,0,0.28,0.01,0.42,0.01c0.13,0,0.26,0.01,0.4,0.01
								c0.13,0,0.25,0.01,0.38,0.01c0.16,0,0.32,0.01,0.48,0.01c0.12,0,0.25,0.01,0.37,0.01c0.17,0.01,0.34,0.01,0.52,0.01
								c0.05,0,0.09,0,0.14,0c0.08,0,0.17,0,0.26,0c0.17,0,0.35,0,0.53,0c0.14,0,0.29,0,0.43,0c0.18,0,0.37,0,0.55,0
								c0.15,0,0.29,0,0.44,0c0.2,0,0.39-0.01,0.59-0.01c0.15,0,0.29,0,0.43,0c0.12-0.01,0.23-0.01,0.35-0.01
								c0.09,0,0.19-0.01,0.28-0.01c0.07,0,0.14,0,0.2-0.01c0.08,0,0.17,0,0.25-0.01c0.2-0.01,0.39-0.01,0.59-0.02
								c0.18,0,0.35-0.01,0.52-0.02c0.19-0.01,0.38-0.01,0.57-0.02c0.19-0.01,0.37-0.01,0.56-0.03c0.19-0.01,0.37-0.01,0.56-0.03
								c0.2-0.01,0.4-0.02,0.6-0.03c0.18-0.01,0.37-0.02,0.55-0.03c0.09-0.01,0.18-0.01,0.27-0.02c0.12-0.01,0.24-0.02,0.36-0.02
								c0.19-0.01,0.38-0.03,0.57-0.04c0.21-0.01,0.41-0.03,0.62-0.05c0.2-0.01,0.41-0.03,0.61-0.05c0.21-0.01,0.42-0.03,0.63-0.05
								c0.2-0.02,0.41-0.04,0.62-0.06c0.22-0.02,0.44-0.04,0.66-0.06c0.2-0.01,0.4-0.04,0.59-0.05c0.09-0.01,0.19-0.02,0.28-0.03
								c0.15-0.02,0.29-0.04,0.43-0.05c0.2-0.02,0.4-0.05,0.6-0.07c0.23-0.02,0.46-0.05,0.69-0.08c0.21-0.03,0.43-0.05,0.65-0.08
								c0.23-0.03,0.45-0.06,0.68-0.09c0.22-0.03,0.45-0.06,0.67-0.09c0.23-0.03,0.46-0.07,0.69-0.1c0.22-0.03,0.45-0.06,0.68-0.1
								c0.08-0.01,0.16-0.02,0.25-0.04c0.15-0.02,0.3-0.05,0.45-0.07c0.23-0.04,0.46-0.07,0.69-0.11c0.23-0.04,0.46-0.08,0.7-0.12
								c0.23-0.04,0.47-0.08,0.7-0.13c0.23-0.04,0.47-0.09,0.71-0.13c0.23-0.05,0.47-0.08,0.71-0.13c0.24-0.05,0.48-0.09,0.72-0.14
								c0.16-0.04,0.32-0.07,0.49-0.1c0.08-0.02,0.15-0.03,0.23-0.05c0.08-0.02,0.15-0.03,0.23-0.05c0.16-0.04,0.33-0.07,0.5-0.11
								c0.24-0.05,0.48-0.1,0.72-0.15c0.25-0.06,0.49-0.11,0.73-0.17c0.24-0.05,0.48-0.11,0.72-0.16c0.25-0.06,0.5-0.12,0.75-0.19
								c0.24-0.06,0.48-0.11,0.72-0.17c0.25-0.07,0.51-0.13,0.76-0.2c0.24-0.06,0.48-0.13,0.71-0.19c0.26-0.07,0.52-0.14,0.77-0.21
								c0.23-0.07,0.47-0.13,0.71-0.2c0.26-0.07,0.52-0.15,0.78-0.23c0.24-0.07,0.47-0.14,0.71-0.21c0.26-0.08,0.53-0.16,0.79-0.25
								c0.23-0.08,0.47-0.15,0.71-0.23c0.26-0.08,0.52-0.17,0.78-0.26c0.24-0.08,0.48-0.16,0.72-0.24c0.06-0.02,0.12-0.04,0.18-0.07
								c0.2-0.07,0.39-0.14,0.58-0.2c0.24-0.09,0.49-0.18,0.74-0.27c0.25-0.09,0.5-0.19,0.75-0.28c0.25-0.09,0.5-0.19,0.75-0.28
								c0.25-0.1,0.5-0.2,0.75-0.29c0.25-0.1,0.5-0.2,0.75-0.3c0.25-0.1,0.5-0.21,0.74-0.32c0.25-0.11,0.5-0.21,0.75-0.32
								c0.25-0.11,0.5-0.23,0.75-0.34c0.25-0.11,0.5-0.22,0.74-0.33c0.25-0.12,0.5-0.24,0.75-0.35c0.25-0.12,0.49-0.23,0.73-0.35
								c0.25-0.12,0.5-0.25,0.75-0.37c0.24-0.12,0.49-0.24,0.73-0.36c0.24-0.13,0.49-0.26,0.73-0.39c0.21-0.11,0.41-0.21,0.62-0.33
								c0.04-0.02,0.08-0.04,0.12-0.06c0.04-0.02,0.08-0.04,0.11-0.06c0.2-0.11,0.4-0.22,0.6-0.34c0.25-0.14,0.5-0.28,0.74-0.42
								c0.24-0.13,0.47-0.27,0.71-0.41c0.25-0.14,0.49-0.29,0.74-0.44c0.24-0.14,0.47-0.29,0.71-0.44c0.24-0.15,0.49-0.3,0.73-0.46
								c0.24-0.15,0.47-0.31,0.7-0.46c0.24-0.16,0.48-0.31,0.72-0.48c0.23-0.15,0.46-0.32,0.7-0.48c0.24-0.17,0.48-0.33,0.71-0.5
								c0.24-0.17,0.46-0.34,0.7-0.51c0.23-0.17,0.47-0.33,0.69-0.51c0.24-0.18,0.47-0.36,0.7-0.54c0.23-0.17,0.45-0.34,0.67-0.52
								c0.24-0.19,0.48-0.39,0.71-0.58c0.21-0.17,0.43-0.35,0.64-0.52c0.02-0.02,0.04-0.03,0.06-0.05c0.22-0.19,0.44-0.38,0.66-0.57
								c0.21-0.18,0.42-0.36,0.62-0.54c0.23-0.21,0.46-0.42,0.7-0.63c0.21-0.19,0.41-0.37,0.61-0.56c0.23-0.21,0.45-0.44,0.68-0.66
								c0.2-0.2,0.41-0.39,0.61-0.59c0.22-0.22,0.43-0.45,0.66-0.67c0.2-0.21,0.41-0.41,0.61-0.62c0.22-0.23,0.43-0.46,0.65-0.7
								c0.2-0.21,0.4-0.43,0.59-0.64c0.22-0.24,0.43-0.5,0.65-0.74c0.19-0.22,0.38-0.43,0.56-0.65c0.23-0.28,0.46-0.56,0.69-0.84
								c0.16-0.2,0.33-0.39,0.49-0.6c0.39-0.49,0.77-0.99,1.15-1.49l-0.6,0c10.51-17.73-14.82-26.19-14.82-26.19l-0.67,3.86
								c21.57,6.79,15.12,18.51,11.06,23.5c-0.11,0.13-0.23,0.26-0.34,0.39c-0.2,0.22-0.4,0.43-0.59,0.64
								c-0.21,0.23-0.43,0.47-0.64,0.7c-0.2,0.21-0.41,0.42-0.61,0.62c-0.22,0.23-0.44,0.45-0.66,0.67c-0.2,0.2-0.41,0.39-0.62,0.6
								c-0.22,0.21-0.45,0.44-0.67,0.65c-0.2,0.19-0.41,0.38-0.62,0.56c-0.23,0.21-0.46,0.43-0.7,0.64
								c-0.21,0.18-0.42,0.36-0.62,0.54c-0.22,0.19-0.44,0.38-0.66,0.57c-0.02,0.02-0.04,0.03-0.06,0.05
								c-0.21,0.18-0.42,0.35-0.64,0.52c-0.24,0.2-0.48,0.39-0.71,0.58c-0.22,0.17-0.45,0.35-0.67,0.52
								c-0.24,0.18-0.47,0.36-0.7,0.54c-0.23,0.17-0.46,0.34-0.7,0.51c-0.23,0.17-0.46,0.34-0.7,0.51c-0.23,0.17-0.47,0.33-0.71,0.5
								c-0.23,0.16-0.46,0.32-0.7,0.48c-0.24,0.16-0.48,0.32-0.72,0.48c-0.23,0.15-0.46,0.31-0.7,0.46
								c-0.24,0.16-0.49,0.3-0.73,0.46c-0.24,0.15-0.47,0.29-0.71,0.44c-0.24,0.15-0.49,0.29-0.74,0.44
								c-0.23,0.14-0.47,0.28-0.71,0.42c-0.25,0.14-0.5,0.28-0.75,0.41c-0.2,0.12-0.4,0.23-0.6,0.34c-0.04,0.01-0.07,0.04-0.11,0.06
								c-0.04,0.02-0.08,0.05-0.12,0.07c-0.21,0.11-0.42,0.21-0.62,0.33c-0.24,0.13-0.49,0.26-0.73,0.39
								c-0.24,0.12-0.49,0.24-0.73,0.37c-0.25,0.13-0.5,0.25-0.75,0.37c-0.24,0.12-0.49,0.23-0.73,0.35
								c-0.25,0.12-0.5,0.24-0.75,0.35c-0.25,0.11-0.5,0.22-0.74,0.34c-0.25,0.11-0.5,0.22-0.75,0.33c-0.25,0.11-0.5,0.21-0.75,0.32
								c-0.24,0.11-0.5,0.21-0.74,0.31c-0.25,0.1-0.5,0.2-0.75,0.3c-0.25,0.1-0.5,0.2-0.75,0.3c-0.25,0.1-0.5,0.19-0.75,0.28
								c-0.25,0.1-0.5,0.19-0.75,0.28c-0.25,0.09-0.49,0.18-0.74,0.27c-0.19,0.07-0.39,0.14-0.58,0.21
								c-0.06,0.02-0.12,0.04-0.18,0.06c-0.24,0.08-0.49,0.16-0.72,0.25c-0.26,0.08-0.52,0.17-0.78,0.26
								c-0.23,0.08-0.47,0.15-0.71,0.22c-0.26,0.08-0.52,0.17-0.79,0.25c-0.23,0.08-0.47,0.14-0.71,0.21
								c-0.26,0.08-0.52,0.16-0.78,0.24c-0.24,0.07-0.47,0.13-0.71,0.2c-0.26,0.07-0.51,0.14-0.77,0.21
								c-0.24,0.06-0.47,0.12-0.71,0.19c-0.25,0.06-0.51,0.13-0.76,0.2c-0.24,0.06-0.48,0.12-0.72,0.18
								c-0.25,0.06-0.5,0.12-0.75,0.18c-0.24,0.06-0.48,0.11-0.72,0.17c-0.24,0.06-0.49,0.11-0.74,0.17
								c-0.24,0.05-0.48,0.11-0.72,0.16c-0.17,0.04-0.33,0.07-0.49,0.11c-0.08,0.02-0.15,0.03-0.23,0.05
								c-0.08,0.01-0.15,0.03-0.23,0.05c-0.17,0.03-0.33,0.07-0.49,0.1c-0.24,0.05-0.48,0.1-0.72,0.14
								c-0.24,0.04-0.47,0.09-0.71,0.13c-0.24,0.05-0.48,0.09-0.71,0.13c-0.24,0.04-0.47,0.08-0.7,0.12
								c-0.24,0.04-0.47,0.08-0.7,0.12c-0.23,0.04-0.46,0.08-0.69,0.11c-0.15,0.02-0.3,0.05-0.45,0.07
								c-0.09,0.01-0.17,0.03-0.25,0.03c-0.23,0.04-0.45,0.07-0.68,0.1c-0.23,0.04-0.46,0.06-0.69,0.1
								c-0.23,0.03-0.45,0.05-0.67,0.09c-0.23,0.03-0.45,0.06-0.68,0.08c-0.22,0.03-0.43,0.06-0.65,0.08
								c-0.23,0.03-0.46,0.06-0.69,0.08c-0.2,0.02-0.4,0.04-0.6,0.07c-0.14,0.01-0.29,0.03-0.43,0.05
								c-0.09,0.01-0.18,0.02-0.28,0.03c-0.2,0.02-0.4,0.04-0.6,0.06c-0.22,0.02-0.44,0.04-0.67,0.06
								c-0.21,0.02-0.41,0.04-0.62,0.06c-0.21,0.01-0.42,0.03-0.63,0.05c-0.21,0.02-0.41,0.03-0.61,0.05
								c-0.21,0.01-0.42,0.03-0.62,0.05c-0.19,0.01-0.38,0.02-0.58,0.04c-0.12,0.01-0.24,0.02-0.36,0.02
								c-0.09,0.01-0.18,0.01-0.27,0.02c-0.19,0.01-0.37,0.02-0.55,0.03c-0.2,0.01-0.41,0.02-0.6,0.03
								c-0.19,0.01-0.38,0.02-0.56,0.03c-0.19,0.01-0.38,0.01-0.57,0.03c-0.19,0.01-0.38,0.01-0.57,0.02
								c-0.18,0.01-0.35,0.01-0.52,0.01c-0.2,0.01-0.39,0.01-0.59,0.02c-0.08,0-0.17,0-0.25,0.01c-0.07,0-0.13,0-0.21,0
								c-0.09,0-0.19,0.01-0.28,0.01c-0.12,0-0.23,0-0.35,0c-0.14,0-0.29,0.01-0.43,0.01c-0.2,0-0.39,0-0.59,0
								c-0.15,0-0.29,0-0.44,0c-0.19,0-0.37,0-0.55,0c-0.14,0-0.29,0-0.43,0c-0.18,0-0.36,0-0.53,0c-0.09,0-0.17,0-0.26,0
								c-0.05,0-0.09,0-0.14,0c-0.18,0-0.35,0-0.52-0.01c-0.12,0-0.25,0-0.37-0.01c-0.16,0-0.32-0.01-0.48-0.01
								c-0.13,0-0.26-0.01-0.38-0.01c-0.13-0.01-0.27-0.01-0.4-0.01c-0.14,0-0.28-0.01-0.43-0.01c-0.1,0-0.2-0.01-0.3-0.01
								c-0.11,0-0.23-0.01-0.34-0.01c-0.04,0-0.07,0-0.11,0c-0.09-0.01-0.18-0.01-0.27-0.01c-0.14-0.01-0.29-0.02-0.42-0.02
								c-0.05,0-0.09-0.01-0.13-0.01l-2.09,2.46C501.37,772.67,501.38,772.67,501.41,772.67z"/>
							
								<linearGradient id="SVGID_00000064338224092372602170000002875693209158069386_" gradientUnits="userSpaceOnUse" x1="66.6108" y1="2105.7607" x2="49.2396" y2="2084.8008" gradientTransform="matrix(-0.565 0.8251 -0.8251 -0.565 2335.7314 1867.9967)">
								<stop  offset="0" style="stop-color:#FFFFFF"/>
								<stop  offset="0.0179" style="stop-color:#F8F9FA"/>
								<stop  offset="0.1631" style="stop-color:#C2CBD3"/>
								<stop  offset="0.3051" style="stop-color:#96A4B2"/>
								<stop  offset="0.4407" style="stop-color:#738799"/>
								<stop  offset="0.5684" style="stop-color:#5A7187"/>
								<stop  offset="0.685" style="stop-color:#4B647C"/>
								<stop  offset="0.7802" style="stop-color:#466078"/>
							</linearGradient>
							<path style="fill:url(#SVGID_00000064338224092372602170000002875693209158069386_);" d="M562.79,721.69l0.02-0.1
								c-0.53,2.83-1.25,5.62-2.12,8.37c3.11,0.8,15.28,4.51,14.58,13.32C579,737.64,581.93,727.72,562.79,721.69z"/>
							
								<radialGradient id="SVGID_00000157991387603796095770000002510071069330679733_" cx="61.8398" cy="2129.2227" r="25.428" gradientTransform="matrix(-0.565 0.8251 -0.8251 -0.565 2335.7314 1867.9967)" gradientUnits="userSpaceOnUse">
								<stop  offset="0" style="stop-color:#FFFFFF"/>
								<stop  offset="0.0243" style="stop-color:#F5F6F8"/>
								<stop  offset="0.1476" style="stop-color:#C7CFD6"/>
								<stop  offset="0.2754" style="stop-color:#9FADB9"/>
								<stop  offset="0.4061" style="stop-color:#7F91A1"/>
								<stop  offset="0.5405" style="stop-color:#667B8F"/>
								<stop  offset="0.6801" style="stop-color:#546C82"/>
								<stop  offset="0.8284" style="stop-color:#49637A"/>
								<stop  offset="1" style="stop-color:#466078"/>
							</radialGradient>
							<polygon style="fill:url(#SVGID_00000157991387603796095770000002510071069330679733_);" points="538.96,709.16 
								543.08,713.49 547.47,705.79 542.3,700.36 							"/>
							
								<radialGradient id="SVGID_00000029766323611496481660000017081307735706823333_" cx="112.6707" cy="2132.9612" r="69.0317" gradientTransform="matrix(-0.565 0.8251 -0.8251 -0.565 2335.7314 1867.9967)" gradientUnits="userSpaceOnUse">
								<stop  offset="0" style="stop-color:#466078"/>
								<stop  offset="0.0667" style="stop-color:#4B647C"/>
								<stop  offset="0.145" style="stop-color:#597086"/>
								<stop  offset="0.2291" style="stop-color:#718597"/>
								<stop  offset="0.3173" style="stop-color:#92A1AF"/>
								<stop  offset="0.4087" style="stop-color:#BCC6CE"/>
								<stop  offset="0.5016" style="stop-color:#EFF2F4"/>
								<stop  offset="0.5275" style="stop-color:#FFFFFF"/>
								<stop  offset="0.5674" style="stop-color:#E3E7EB"/>
								<stop  offset="0.6435" style="stop-color:#B4BEC8"/>
								<stop  offset="0.7195" style="stop-color:#8C9CAB"/>
								<stop  offset="0.794" style="stop-color:#6D8295"/>
								<stop  offset="0.8666" style="stop-color:#586F85"/>
								<stop  offset="0.9363" style="stop-color:#4A647B"/>
								<stop  offset="1" style="stop-color:#466078"/>
							</radialGradient>
							<path style="fill:url(#SVGID_00000029766323611496481660000017081307735706823333_);" d="M543.08,713.49
								c-0.06,0.49-0.13,0.98-0.21,1.46c-0.02,0.13-0.04,0.26-0.06,0.39c-0.06,0.4-0.13,0.79-0.2,1.19
								c-0.01,0.09-0.03,0.18-0.04,0.26c-0.09,0.47-0.18,0.93-0.27,1.39c-0.02,0.11-0.04,0.21-0.07,0.32
								c-0.08,0.37-0.16,0.75-0.25,1.11c-0.02,0.11-0.05,0.22-0.08,0.33c-0.11,0.45-0.22,0.9-0.33,1.34
								c-0.01,0.06-0.03,0.12-0.05,0.17c-0.1,0.39-0.21,0.77-0.31,1.15c-0.03,0.12-0.07,0.23-0.1,0.34c-0.12,0.4-0.24,0.8-0.36,1.2
								c-0.01,0.03-0.02,0.06-0.03,0.09c-0.13,0.42-0.28,0.84-0.42,1.26c-0.04,0.11-0.08,0.21-0.11,0.31
								c-0.12,0.34-0.24,0.67-0.36,1.01c-0.03,0.08-0.06,0.17-0.09,0.25c-0.15,0.4-0.31,0.8-0.47,1.19
								c-0.03,0.08-0.07,0.16-0.1,0.24c-0.13,0.32-0.27,0.64-0.41,0.95c-0.04,0.1-0.09,0.21-0.13,0.3
								c-0.17,0.39-0.34,0.76-0.52,1.14c-0.01,0.03-0.03,0.06-0.04,0.09c-0.16,0.35-0.33,0.69-0.5,1.02
								c-0.05,0.1-0.1,0.21-0.16,0.31c-0.16,0.31-0.32,0.62-0.48,0.92c-0.03,0.05-0.06,0.12-0.1,0.17c-0.19,0.35-0.39,0.7-0.58,1.04
								c-0.06,0.1-0.11,0.19-0.17,0.29c-0.16,0.27-0.31,0.53-0.47,0.79c-0.06,0.1-0.11,0.19-0.17,0.28c-0.2,0.33-0.4,0.66-0.61,0.98
								c-0.05,0.07-0.1,0.15-0.15,0.22c-0.17,0.26-0.34,0.52-0.52,0.78c-0.06,0.1-0.13,0.2-0.2,0.29c-0.2,0.3-0.41,0.6-0.63,0.89
								c-0.02,0.02-0.03,0.04-0.05,0.07c-0.22,0.31-0.45,0.61-0.67,0.9c-0.07,0.09-0.14,0.18-0.21,0.27
								c-0.19,0.24-0.37,0.48-0.56,0.72c-0.05,0.06-0.11,0.14-0.17,0.2c-0.23,0.29-0.47,0.58-0.7,0.86
								c-0.07,0.08-0.14,0.16-0.2,0.24c-0.14,0.17-0.29,0.34-0.43,0.5c-0.32,0.37-0.65,0.73-0.98,1.08
								c-0.03,0.04-0.06,0.08-0.1,0.11c-0.36,0.39-0.73,0.77-1.1,1.14c-0.09,0.1-0.19,0.19-0.28,0.29c-0.3,0.3-0.6,0.59-0.9,0.88
								c-0.09,0.09-0.17,0.16-0.26,0.25c-0.38,0.36-0.76,0.7-1.14,1.04c-0.07,0.07-0.15,0.13-0.22,0.19
								c-0.32,0.28-0.64,0.56-0.97,0.83c-0.11,0.1-0.22,0.19-0.33,0.28c-0.37,0.31-0.74,0.61-1.12,0.91
								c-0.02,0.02-0.05,0.04-0.07,0.06c-0.4,0.31-0.8,0.61-1.2,0.92c-0.11,0.09-0.23,0.17-0.35,0.26c-0.32,0.24-0.64,0.47-0.97,0.7
								c-0.1,0.07-0.19,0.14-0.29,0.2c-0.41,0.28-0.81,0.56-1.22,0.83c-0.09,0.06-0.19,0.12-0.28,0.18c-0.33,0.22-0.67,0.44-1,0.65
								c-0.11,0.07-0.23,0.14-0.35,0.22c-0.42,0.26-0.84,0.51-1.26,0.76c-0.01,0.01-0.02,0.01-0.03,0.02
								c-0.41,0.24-0.82,0.48-1.24,0.71c-0.11,0.07-0.24,0.13-0.35,0.19c-0.35,0.19-0.7,0.39-1.05,0.57
								c-0.09,0.04-0.17,0.09-0.25,0.14c-0.42,0.22-0.85,0.44-1.28,0.65c-0.1,0.05-0.2,0.1-0.29,0.15
								c-0.34,0.17-0.69,0.34-1.04,0.51c-0.11,0.05-0.22,0.1-0.33,0.16c-0.43,0.2-0.86,0.4-1.29,0.59
								c-0.03,0.01-0.06,0.02-0.09,0.04c-0.4,0.18-0.8,0.35-1.2,0.52c-0.12,0.05-0.23,0.1-0.34,0.14c-0.36,0.15-0.73,0.3-1.09,0.45
								c-0.07,0.03-0.14,0.06-0.2,0.08c-0.1,0.04-0.2,0.08-0.3,0.12c-0.52,0.21-1.03,0.4-1.54,0.59c-0.17,0.06-0.34,0.13-0.51,0.19
								c-0.53,0.19-1.05,0.38-1.58,0.56c-0.07,0.02-0.14,0.05-0.2,0.07c-0.59,0.2-1.17,0.39-1.74,0.57
								c-0.16,0.05-0.32,0.1-0.47,0.15c-0.46,0.14-0.91,0.28-1.37,0.42c-0.13,0.03-0.27,0.08-0.4,0.12
								c-0.56,0.16-1.11,0.32-1.66,0.46c-0.13,0.04-0.25,0.07-0.38,0.1c-0.44,0.12-0.88,0.23-1.31,0.34
								c-0.15,0.03-0.29,0.07-0.44,0.11c-0.53,0.13-1.06,0.26-1.57,0.37c-0.04,0.01-0.08,0.02-0.12,0.03
								c-0.49,0.11-0.96,0.21-1.43,0.31c-0.16,0.04-0.31,0.07-0.47,0.1c-0.26,0.06-0.53,0.11-0.79,0.16
								c-0.16,0.03-0.32,0.06-0.48,0.1c-0.27,0.05-0.54,0.1-0.8,0.15c-0.14,0.03-0.28,0.06-0.42,0.08c-0.38,0.06-0.74,0.13-1.1,0.19
								c-0.02,0.01-0.04,0.01-0.05,0.01c-0.39,0.07-0.78,0.13-1.15,0.19c-0.02,0-0.03,0.01-0.05,0.01
								c-0.36,0.06-0.72,0.11-1.06,0.16c-0.03,0-0.05,0-0.08,0.01c-0.35,0.05-0.68,0.1-1,0.14c-0.01,0-0.02,0.01-0.04,0.01
								c-0.34,0.04-0.66,0.09-0.98,0.12c0,0,0,0-0.01,0c-0.32,0.04-0.62,0.07-0.92,0.11c0,0-0.01,0-0.02,0
								c-0.13,0.01-0.26,0.03-0.38,0.04c-0.02,0-0.05,0-0.07,0.01c-0.11,0.01-0.22,0.02-0.33,0.03c-0.03,0.01-0.05,0.01-0.08,0.01
								c-0.1,0.01-0.2,0.01-0.29,0.03c-0.03,0.01-0.06,0.01-0.09,0.01c-0.12,0.01-0.23,0.02-0.34,0.03c-0.04,0-0.08,0.01-0.12,0.01
								c-0.07,0.01-0.14,0.01-0.21,0.02c-0.05,0-0.1,0.01-0.15,0.01c-0.05,0.01-0.1,0.01-0.16,0.01c-0.05,0-0.1,0.01-0.15,0.01
								c-0.05,0-0.11,0.01-0.16,0.01c-0.04,0.01-0.08,0.01-0.12,0.01c-0.06,0-0.13,0.01-0.18,0.01c-0.03,0-0.05,0-0.08,0.01
								c-0.05,0-0.11,0.01-0.16,0.01c-0.03,0-0.07,0.01-0.11,0.01c0,0,0,0,0,0c-0.58,0.04-0.97,0.05-1.16,0.06l-12.26,5.5
								c0.1,0,0.25-0.01,0.44-0.02c0.01,0,0.02,0,0.03,0c0.05,0,0.1-0.01,0.15-0.01c0.03,0,0.05,0,0.07,0c0.04,0,0.09,0,0.14-0.01
								c0.03,0,0.06-0.01,0.1-0.01c0.05,0,0.11-0.01,0.17-0.01c0.03,0,0.06,0,0.1-0.01c0.09-0.01,0.18-0.01,0.28-0.02
								c0.02,0,0.05,0,0.08-0.01c0.08-0.01,0.16-0.01,0.24-0.02c0.01,0,0.01,0,0.02,0c0.02,0,0.03,0,0.05,0
								c0.09-0.01,0.18-0.01,0.28-0.02c0.02,0,0.05,0,0.07-0.01c0.1-0.01,0.2-0.02,0.31-0.02c0.03,0,0.05-0.01,0.08-0.01
								c0.1-0.01,0.21-0.01,0.32-0.03c0.03,0,0.06-0.01,0.09-0.01c0.11-0.01,0.21-0.02,0.33-0.03c0.04,0,0.07-0.01,0.11-0.01
								c0.14-0.01,0.28-0.02,0.42-0.04c0.07,0,0.15-0.01,0.23-0.02c0.07-0.01,0.15-0.01,0.22-0.02c0.09-0.01,0.18-0.02,0.27-0.03
								c0.06-0.01,0.13-0.01,0.19-0.02c0.1-0.01,0.2-0.02,0.3-0.03c0.06-0.01,0.12-0.01,0.19-0.02c0.06-0.01,0.11-0.01,0.17-0.02
								c0.05,0,0.1-0.01,0.14-0.02c0.07-0.01,0.14-0.01,0.21-0.02c0.1-0.01,0.21-0.02,0.31-0.03c0.08-0.01,0.15-0.02,0.23-0.03
								c0.11-0.01,0.21-0.03,0.32-0.04c0.09-0.01,0.19-0.02,0.29-0.03c0.16-0.02,0.32-0.04,0.48-0.06c0.12-0.02,0.23-0.03,0.35-0.05
								c0.09-0.01,0.17-0.02,0.26-0.03c0.12-0.02,0.24-0.03,0.37-0.05c0.09-0.01,0.17-0.02,0.26-0.04c0.13-0.02,0.25-0.03,0.38-0.05
								c0.08-0.01,0.17-0.02,0.26-0.04c0.14-0.01,0.28-0.04,0.42-0.06c0.08-0.01,0.15-0.02,0.23-0.03c0.16-0.03,0.32-0.05,0.49-0.08
								c0.05-0.01,0.1-0.01,0.14-0.02c0.01-0.01,0.02-0.01,0.03-0.01c0.46-0.07,0.94-0.15,1.43-0.23c0.03-0.01,0.06-0.01,0.09-0.02
								c0.39-0.07,0.79-0.14,1.19-0.21c0.05-0.01,0.1-0.02,0.15-0.03c0.19-0.03,0.39-0.07,0.59-0.1c0.31-0.06,0.62-0.11,0.94-0.18
								c0.22-0.04,0.43-0.08,0.65-0.13c0.31-0.06,0.61-0.12,0.93-0.19c0.13-0.03,0.25-0.05,0.38-0.08c0.17-0.04,0.33-0.07,0.5-0.11
								c0.1-0.02,0.2-0.04,0.3-0.06c0.46-0.1,0.93-0.21,1.4-0.31c0.01-0.01,0.03-0.01,0.05-0.01c0.45-0.1,0.9-0.21,1.36-0.32
								c0.12-0.03,0.24-0.06,0.35-0.09c0.42-0.1,0.84-0.21,1.26-0.31c0.07-0.02,0.13-0.04,0.2-0.06c0.49-0.12,0.98-0.25,1.47-0.38
								c0.11-0.03,0.22-0.06,0.33-0.09c0.4-0.11,0.81-0.22,1.22-0.34c0.12-0.03,0.24-0.07,0.36-0.1c0.51-0.15,1.01-0.3,1.52-0.45
								c0.06-0.02,0.11-0.04,0.17-0.06c0.45-0.13,0.91-0.28,1.37-0.43c0.13-0.04,0.27-0.08,0.41-0.13c0.46-0.15,0.93-0.31,1.39-0.46
								c0.06-0.02,0.12-0.04,0.17-0.06c0.52-0.18,1.05-0.36,1.58-0.55c0.12-0.05,0.25-0.09,0.38-0.14c0.43-0.16,0.86-0.31,1.29-0.48
								c0.12-0.05,0.24-0.09,0.36-0.14c0.5-0.19,1-0.39,1.49-0.58c0.03-0.02,0.07-0.03,0.11-0.05c0.08-0.03,0.16-0.06,0.24-0.1
								c0.46-0.19,0.92-0.37,1.39-0.57c0.14-0.06,0.28-0.12,0.41-0.17c0.51-0.22,1.02-0.44,1.53-0.67c0.02-0.01,0.05-0.02,0.07-0.04
								c0.01,0,0.01-0.01,0.02-0.01c0.54-0.24,1.08-0.49,1.62-0.74c0.13-0.06,0.27-0.13,0.41-0.19c0.44-0.21,0.87-0.42,1.31-0.63
								c0.12-0.06,0.24-0.12,0.36-0.18c0.54-0.27,1.07-0.54,1.6-0.82c0.1-0.05,0.21-0.11,0.31-0.16c0.44-0.23,0.88-0.48,1.32-0.72
								c0.14-0.08,0.29-0.16,0.43-0.24c0.53-0.29,1.05-0.59,1.57-0.9c0.01-0.01,0.02-0.01,0.03-0.01c0.53-0.31,1.05-0.63,1.58-0.96
								c0.14-0.09,0.28-0.18,0.43-0.27c0.42-0.27,0.85-0.54,1.27-0.82c0.11-0.07,0.22-0.15,0.34-0.22c0.51-0.34,1.03-0.69,1.54-1.05
								c0.12-0.08,0.23-0.16,0.34-0.24c0.41-0.29,0.83-0.59,1.23-0.89c0.14-0.1,0.28-0.2,0.41-0.31c0.1-0.07,0.2-0.14,0.29-0.21
								c0.41-0.31,0.82-0.62,1.22-0.94c0.02-0.02,0.05-0.04,0.07-0.05c0.48-0.38,0.95-0.77,1.42-1.15c0.14-0.12,0.27-0.23,0.41-0.34
								c0.41-0.34,0.81-0.68,1.21-1.04c0.09-0.08,0.19-0.16,0.28-0.25c0.48-0.42,0.95-0.86,1.42-1.3c0.12-0.11,0.23-0.22,0.34-0.33
								c0.37-0.36,0.74-0.72,1.11-1.08c0.13-0.12,0.25-0.25,0.37-0.38c0.46-0.46,0.91-0.94,1.36-1.42c0.05-0.05,0.1-0.11,0.15-0.17
								c0.4-0.43,0.79-0.87,1.18-1.32c0.06-0.07,0.12-0.14,0.18-0.21c0.14-0.15,0.27-0.31,0.4-0.47c0.07-0.08,0.14-0.16,0.21-0.25
								c0.3-0.36,0.61-0.73,0.9-1.1c0.06-0.07,0.11-0.14,0.17-0.21c0.25-0.31,0.5-0.62,0.74-0.94c0.08-0.1,0.16-0.2,0.24-0.31
								c0.29-0.38,0.58-0.77,0.87-1.17c0,0,0.01,0,0.01-0.01c0.28-0.39,0.56-0.79,0.83-1.19c0.08-0.1,0.15-0.22,0.23-0.33
								c0.23-0.34,0.46-0.68,0.68-1.03c0.05-0.08,0.1-0.15,0.15-0.23c0.27-0.41,0.53-0.83,0.79-1.25c0.02-0.04,0.05-0.07,0.07-0.11
								c0.04-0.07,0.08-0.14,0.12-0.21c0.21-0.34,0.41-0.68,0.61-1.03c0.06-0.11,0.13-0.22,0.19-0.33c0.25-0.43,0.49-0.87,0.73-1.32
								c0.04-0.07,0.07-0.14,0.11-0.21c0.21-0.38,0.41-0.77,0.61-1.17c0.07-0.12,0.13-0.25,0.19-0.38c0.22-0.43,0.43-0.86,0.63-1.29
								c0.02-0.04,0.04-0.08,0.05-0.11c0.22-0.47,0.44-0.94,0.65-1.42c0.06-0.12,0.11-0.25,0.17-0.38c0.17-0.39,0.34-0.79,0.51-1.19
								c0.05-0.11,0.09-0.21,0.13-0.31c0.2-0.49,0.39-0.99,0.59-1.49c0.04-0.11,0.08-0.22,0.12-0.32c0.15-0.41,0.31-0.83,0.45-1.25
								c0.05-0.13,0.1-0.27,0.14-0.4c0.18-0.52,0.35-1.04,0.52-1.57c0.01-0.04,0.03-0.09,0.04-0.14c0.15-0.48,0.3-0.98,0.45-1.47
								c0.04-0.14,0.09-0.29,0.13-0.44c0.13-0.47,0.27-0.95,0.39-1.43c0.02-0.08,0.04-0.15,0.07-0.23c0.14-0.55,0.28-1.1,0.41-1.67
								c0.03-0.14,0.06-0.29,0.1-0.43c0.1-0.46,0.21-0.92,0.31-1.38c0.03-0.14,0.06-0.27,0.08-0.41c0.12-0.58,0.23-1.15,0.34-1.74
								c0.02-0.11,0.04-0.23,0.06-0.34c0.09-0.49,0.17-0.99,0.25-1.48c0.02-0.16,0.05-0.33,0.08-0.49c0.09-0.6,0.18-1.21,0.26-1.83
								L543.08,713.49z"/>
							
								<radialGradient id="SVGID_00000129899898559108360680000010324533802068442762_" cx="111.9043" cy="2114.5078" r="134.3546" gradientTransform="matrix(-0.565 0.8251 -0.8251 -0.565 2335.7314 1867.9967)" gradientUnits="userSpaceOnUse">
								<stop  offset="5.494510e-03" style="stop-color:#FFFFFF"/>
								<stop  offset="0.1264" style="stop-color:#04BFFF"/>
								<stop  offset="0.1505" style="stop-color:#04A3DF"/>
								<stop  offset="0.187" style="stop-color:#047FB5"/>
								<stop  offset="0.2255" style="stop-color:#045F90"/>
								<stop  offset="0.2657" style="stop-color:#044673"/>
								<stop  offset="0.3081" style="stop-color:#04325C"/>
								<stop  offset="0.3536" style="stop-color:#04244C"/>
								<stop  offset="0.4047" style="stop-color:#041C42"/>
								<stop  offset="0.4725" style="stop-color:#04193F"/>
							</radialGradient>
							<path style="fill:url(#SVGID_00000129899898559108360680000010324533802068442762_);" d="M476.77,777.99
								c3.89,1.91,7.7,3.51,11.43,4.83c3.73,1.32,7.38,2.36,10.94,3.16c3.56,0.8,7.04,1.35,10.43,1.68
								c11.07,1.08,21.07-0.05,29.86-2.38c8.79-2.34,16.37-5.87,22.61-9.6c6.24-3.72,11.14-7.63,14.56-10.72
								c0.17-0.15,0.33-0.3,0.5-0.45l0,0c0,0,2.09-1.73,4.63-4.61c0.31-0.34,0.51-0.58,0.61-0.69l0-0.01
								c8.34-9.77,20.61-30.25-18.86-42.34c0,0-0.05,0.74-0.39,2.92c0,0,31.59,7.88,9.84,31.19c-4.75,4.75-10.02,8.51-15.5,11.47
								c-7.87,4.26-16.14,6.87-23.85,8.44c-7.71,1.57-14.84,2.11-20.43,2.22c-5.59,0.11-9.63-0.22-11.14-0.36
								c-0.11-0.01-0.2-0.02-0.28-0.03c-0.08-0.01-0.15-0.01-0.2-0.02c-0.05-0.01-0.09-0.01-0.12-0.01c-0.03,0-0.05,0-0.05-0.01
								c14.72-4.39,25.94-10.4,34.5-16.97c8.56-6.58,14.46-13.72,18.53-20.39c4.06-6.67,6.29-12.86,7.52-17.53
								c1.22-4.66,1.44-7.81,1.48-8.38l-21.09-9.03l5.17,5.43c-2.02,15.54-7.95,27.39-15.79,36.43
								c-7.83,9.04-17.55,15.27-27.14,19.56c-9.59,4.29-19.04,6.65-26.33,7.94c-7.29,1.3-12.41,1.53-13.34,1.57
								C468.91,773.86,472.88,776.08,476.77,777.99z"/>
							
								<radialGradient id="SVGID_00000078009660356863860280000009297965241843604613_" cx="10.7363" cy="2221.6301" r="49.6614" gradientTransform="matrix(-0.565 0.8251 -0.8251 -0.565 2335.7314 1867.9967)" gradientUnits="userSpaceOnUse">
								<stop  offset="0" style="stop-color:#FFFFFF"/>
								<stop  offset="0.0243" style="stop-color:#F5F6F8"/>
								<stop  offset="0.1476" style="stop-color:#C7CFD6"/>
								<stop  offset="0.2754" style="stop-color:#9FADB9"/>
								<stop  offset="0.4061" style="stop-color:#7F91A1"/>
								<stop  offset="0.5405" style="stop-color:#667B8F"/>
								<stop  offset="0.6801" style="stop-color:#546C82"/>
								<stop  offset="0.8284" style="stop-color:#49637A"/>
								<stop  offset="1" style="stop-color:#466078"/>
							</radialGradient>
							<path style="fill:url(#SVGID_00000078009660356863860280000009297965241843604613_);" d="M471.19,646.21
								c-5.04-21.44,7.55-22.33,14.09-21.45c0.02,0,0.03,0.01,0.05,0.01c0.32,0.06,0.65,0.11,0.97,0.18
								c0.29,0.05,0.57,0.12,0.85,0.18c0.31,0.06,0.62,0.13,0.93,0.2c0.28,0.06,0.56,0.13,0.85,0.2c0.31,0.08,0.61,0.15,0.91,0.22
								c0.28,0.07,0.55,0.15,0.82,0.22c0.3,0.08,0.61,0.16,0.91,0.25c0.27,0.08,0.53,0.16,0.8,0.24c0.3,0.09,0.6,0.18,0.9,0.27
								c0.26,0.08,0.52,0.17,0.78,0.26c0.28,0.09,0.56,0.18,0.83,0.27c0.02,0.01,0.05,0.01,0.07,0.02c0.26,0.09,0.52,0.19,0.78,0.28
								c0.29,0.11,0.58,0.21,0.86,0.32c0.27,0.1,0.53,0.21,0.79,0.31c0.28,0.11,0.55,0.22,0.83,0.32c0.27,0.11,0.53,0.23,0.79,0.34
								c0.26,0.11,0.53,0.22,0.79,0.34c0.26,0.12,0.53,0.24,0.79,0.36c0.25,0.12,0.51,0.23,0.77,0.35c0.26,0.12,0.52,0.25,0.78,0.38
								c0.25,0.12,0.5,0.24,0.75,0.37c0.26,0.13,0.51,0.26,0.77,0.4c0.25,0.13,0.49,0.25,0.73,0.38c0.26,0.13,0.5,0.28,0.76,0.41
								c0.24,0.13,0.48,0.27,0.72,0.4c0.25,0.14,0.5,0.29,0.75,0.43c0.2,0.12,0.4,0.23,0.6,0.35c0.04,0.02,0.07,0.04,0.11,0.07
								c0.04,0.02,0.08,0.05,0.12,0.07c0.2,0.12,0.4,0.24,0.6,0.37c0.24,0.14,0.47,0.29,0.71,0.43c0.23,0.15,0.46,0.3,0.69,0.44
								c0.23,0.15,0.47,0.3,0.7,0.46c0.23,0.15,0.45,0.3,0.68,0.45c0.23,0.15,0.46,0.31,0.69,0.47c0.22,0.15,0.44,0.31,0.66,0.47
								c0.22,0.16,0.45,0.31,0.67,0.48c0.22,0.16,0.44,0.32,0.66,0.48c0.22,0.16,0.44,0.32,0.65,0.48c0.22,0.17,0.43,0.33,0.64,0.49
								c0.21,0.16,0.43,0.33,0.64,0.49c0.21,0.17,0.42,0.33,0.63,0.5c0.21,0.17,0.42,0.33,0.63,0.5c0.2,0.17,0.4,0.33,0.6,0.5
								c0.16,0.13,0.32,0.26,0.48,0.39c0.05,0.04,0.1,0.08,0.14,0.12c0.19,0.17,0.39,0.33,0.58,0.5c0.21,0.18,0.41,0.36,0.62,0.54
								c0.19,0.16,0.37,0.33,0.56,0.49c0.21,0.18,0.41,0.37,0.61,0.55c0.19,0.17,0.37,0.33,0.54,0.5c0.2,0.19,0.4,0.37,0.6,0.55
								c0.18,0.17,0.36,0.34,0.53,0.51c0.19,0.18,0.39,0.37,0.58,0.55c0.18,0.17,0.35,0.34,0.53,0.52c0.19,0.18,0.37,0.37,0.56,0.55
								c0.17,0.18,0.35,0.35,0.52,0.52c0.18,0.19,0.36,0.37,0.54,0.55c0.17,0.18,0.34,0.35,0.51,0.53c0.18,0.18,0.35,0.37,0.52,0.55
								c0.17,0.18,0.34,0.36,0.51,0.54c0.11,0.13,0.23,0.25,0.34,0.37c0.05,0.06,0.11,0.11,0.15,0.17c0.05,0.06,0.11,0.11,0.16,0.17
								c0.11,0.12,0.22,0.25,0.33,0.37c0.16,0.18,0.33,0.36,0.49,0.54c0.16,0.18,0.32,0.36,0.47,0.54c0.16,0.18,0.32,0.36,0.48,0.54
								c0.16,0.18,0.31,0.36,0.47,0.54c0.15,0.18,0.3,0.36,0.46,0.54c0.15,0.18,0.3,0.36,0.45,0.53c0.1,0.12,0.2,0.23,0.29,0.35
								c0.05,0.06,0.1,0.13,0.16,0.19c0.15,0.18,0.29,0.35,0.43,0.53c0.15,0.18,0.29,0.37,0.43,0.54c0.14,0.18,0.28,0.35,0.42,0.53
								c0.14,0.18,0.28,0.36,0.42,0.54c0.14,0.17,0.27,0.34,0.4,0.51c0.14,0.19,0.28,0.37,0.42,0.55c0.12,0.16,0.24,0.32,0.37,0.49
								c0.09,0.12,0.17,0.23,0.26,0.35c0.05,0.08,0.11,0.15,0.16,0.22c0.12,0.16,0.24,0.32,0.35,0.48c0.13,0.18,0.27,0.36,0.4,0.54
								c0.12,0.17,0.24,0.34,0.36,0.51c0.12,0.17,0.25,0.34,0.37,0.51c0.12,0.17,0.23,0.33,0.35,0.5c0.12,0.17,0.24,0.34,0.36,0.51
								c0.11,0.16,0.22,0.32,0.33,0.47c0.07,0.1,0.14,0.2,0.21,0.3c0.05,0.07,0.1,0.15,0.15,0.23c0.1,0.15,0.21,0.3,0.31,0.45
								c0.11,0.17,0.22,0.34,0.33,0.51c0.1,0.15,0.21,0.31,0.31,0.47c0.11,0.16,0.21,0.32,0.31,0.48c0.1,0.16,0.2,0.32,0.31,0.47
								c0.09,0.15,0.19,0.3,0.28,0.44c0.1,0.17,0.21,0.33,0.32,0.49c0.04,0.07,0.09,0.14,0.13,0.22c0.04,0.06,0.07,0.11,0.11,0.17
								c0.05,0.08,0.1,0.16,0.15,0.24c0.06,0.1,0.12,0.2,0.18,0.3c0.08,0.12,0.15,0.24,0.22,0.36c0.11,0.17,0.21,0.34,0.3,0.51
								c0.08,0.13,0.15,0.25,0.23,0.38c0.1,0.16,0.19,0.31,0.28,0.47c0.08,0.12,0.15,0.24,0.22,0.37c0.09,0.16,0.18,0.31,0.27,0.46
								c0.04,0.08,0.09,0.15,0.13,0.22c0.02,0.04,0.04,0.08,0.07,0.13c0.09,0.15,0.17,0.3,0.26,0.45c0.06,0.11,0.12,0.22,0.18,0.32
								c0.08,0.14,0.16,0.28,0.23,0.42c0.06,0.11,0.13,0.22,0.19,0.33c0.06,0.12,0.13,0.23,0.19,0.35c0.07,0.13,0.14,0.25,0.2,0.37
								c0.05,0.09,0.1,0.18,0.15,0.27c0.05,0.1,0.11,0.2,0.16,0.3c0.02,0.03,0.03,0.07,0.05,0.1c0.05,0.09,0.09,0.16,0.13,0.24
								c0.07,0.13,0.14,0.26,0.2,0.38c0.02,0.04,0.04,0.08,0.06,0.12l3.18,0.54c0,0-0.01-0.02-0.02-0.04
								c-0.01-0.03-0.03-0.07-0.05-0.11c-0.02-0.05-0.05-0.11-0.08-0.19c-0.03-0.07-0.07-0.16-0.12-0.25
								c-0.04-0.09-0.09-0.19-0.14-0.29c-0.01-0.02-0.01-0.03-0.02-0.04c-0.04-0.09-0.09-0.19-0.14-0.29
								c-0.02-0.04-0.04-0.08-0.05-0.11c-0.04-0.09-0.09-0.18-0.14-0.28c-0.02-0.04-0.03-0.08-0.06-0.11
								c-0.05-0.11-0.11-0.22-0.16-0.34c0,0,0-0.01-0.01-0.01c-0.02-0.03-0.04-0.07-0.05-0.1c-0.06-0.12-0.12-0.24-0.18-0.36
								c-0.03-0.07-0.07-0.14-0.11-0.21c-0.05-0.11-0.11-0.21-0.16-0.31c-0.05-0.1-0.11-0.21-0.16-0.31
								c-0.04-0.09-0.09-0.17-0.13-0.26c-0.06-0.12-0.13-0.25-0.2-0.37c-0.04-0.08-0.08-0.15-0.13-0.24
								c-0.02-0.03-0.03-0.06-0.05-0.1c-0.05-0.1-0.11-0.2-0.16-0.3c-0.05-0.09-0.1-0.18-0.15-0.27c-0.07-0.12-0.13-0.25-0.21-0.37
								c-0.06-0.12-0.12-0.23-0.19-0.35c-0.06-0.11-0.13-0.22-0.19-0.33c-0.08-0.14-0.15-0.28-0.23-0.42
								c-0.06-0.1-0.12-0.21-0.19-0.32c-0.08-0.15-0.17-0.3-0.26-0.45c-0.02-0.04-0.05-0.08-0.07-0.12
								c-0.04-0.07-0.08-0.15-0.13-0.22c-0.09-0.15-0.18-0.3-0.27-0.46c-0.07-0.12-0.14-0.24-0.22-0.37
								c-0.09-0.16-0.19-0.31-0.28-0.47c-0.07-0.12-0.15-0.25-0.23-0.38c-0.1-0.17-0.2-0.33-0.31-0.5
								c-0.07-0.12-0.15-0.24-0.22-0.36c-0.06-0.1-0.12-0.2-0.18-0.3c-0.05-0.08-0.1-0.16-0.15-0.24c-0.04-0.06-0.07-0.12-0.11-0.17
								c-0.04-0.07-0.09-0.15-0.13-0.21c-0.1-0.17-0.21-0.33-0.31-0.5c-0.09-0.15-0.19-0.29-0.28-0.44c-0.1-0.16-0.2-0.32-0.31-0.47
								c-0.1-0.16-0.21-0.32-0.31-0.48c-0.11-0.15-0.21-0.31-0.31-0.47c-0.11-0.17-0.22-0.34-0.33-0.51c-0.1-0.15-0.2-0.3-0.31-0.45
								c-0.05-0.08-0.1-0.15-0.15-0.22c-0.07-0.1-0.14-0.2-0.2-0.3c-0.11-0.16-0.22-0.32-0.33-0.48c-0.12-0.17-0.24-0.34-0.36-0.51
								c-0.11-0.17-0.23-0.33-0.35-0.5c-0.12-0.17-0.24-0.34-0.37-0.51c-0.12-0.17-0.24-0.34-0.36-0.5
								c-0.13-0.18-0.26-0.36-0.39-0.54c-0.12-0.16-0.24-0.32-0.35-0.48c-0.05-0.08-0.11-0.15-0.17-0.23
								c-0.09-0.11-0.18-0.23-0.26-0.34c-0.12-0.16-0.24-0.32-0.36-0.48c-0.14-0.18-0.28-0.37-0.42-0.55
								c-0.13-0.17-0.26-0.34-0.4-0.52c-0.14-0.18-0.28-0.36-0.42-0.54c-0.14-0.18-0.28-0.35-0.42-0.53
								c-0.15-0.18-0.29-0.36-0.44-0.54c-0.15-0.18-0.29-0.35-0.43-0.53c-0.05-0.06-0.1-0.13-0.16-0.2c-0.1-0.11-0.2-0.23-0.29-0.35
								c-0.15-0.18-0.3-0.36-0.45-0.54c-0.15-0.18-0.3-0.36-0.45-0.54c-0.16-0.18-0.31-0.36-0.47-0.54
								c-0.16-0.18-0.32-0.36-0.47-0.54c-0.16-0.18-0.31-0.36-0.48-0.54c-0.16-0.18-0.32-0.36-0.49-0.54
								c-0.11-0.12-0.22-0.25-0.33-0.37c-0.05-0.06-0.11-0.12-0.16-0.17c-0.05-0.06-0.1-0.11-0.16-0.17
								c-0.11-0.12-0.23-0.25-0.34-0.37c-0.17-0.18-0.34-0.36-0.5-0.54c-0.17-0.18-0.34-0.36-0.52-0.54
								c-0.17-0.18-0.34-0.36-0.51-0.53c-0.18-0.19-0.36-0.37-0.54-0.55c-0.18-0.17-0.34-0.35-0.52-0.52
								c-0.19-0.18-0.37-0.37-0.56-0.55c-0.18-0.17-0.35-0.34-0.53-0.51c-0.19-0.19-0.39-0.37-0.58-0.56
								c-0.18-0.17-0.36-0.34-0.54-0.51c-0.2-0.18-0.4-0.37-0.6-0.56c-0.18-0.17-0.36-0.33-0.54-0.49c-0.2-0.19-0.41-0.37-0.62-0.55
								c-0.19-0.17-0.37-0.33-0.56-0.5c-0.2-0.18-0.41-0.36-0.62-0.53c-0.19-0.17-0.38-0.33-0.58-0.5c-0.05-0.04-0.1-0.08-0.15-0.12
								c-0.16-0.13-0.32-0.26-0.48-0.39c-0.2-0.17-0.4-0.34-0.61-0.5c-0.21-0.17-0.41-0.34-0.63-0.51c-0.21-0.17-0.41-0.33-0.62-0.5
								c-0.21-0.16-0.42-0.33-0.64-0.49c-0.21-0.17-0.43-0.33-0.64-0.5c-0.22-0.16-0.44-0.32-0.65-0.48
								c-0.22-0.16-0.44-0.32-0.66-0.48c-0.22-0.16-0.45-0.32-0.67-0.48c-0.22-0.16-0.44-0.31-0.66-0.46
								c-0.23-0.16-0.46-0.31-0.69-0.47c-0.22-0.15-0.45-0.3-0.67-0.45c-0.23-0.15-0.47-0.3-0.7-0.46
								c-0.23-0.14-0.46-0.29-0.69-0.44c-0.23-0.14-0.47-0.29-0.71-0.43c-0.2-0.12-0.4-0.25-0.6-0.37
								c-0.04-0.02-0.08-0.04-0.12-0.07c-0.04-0.02-0.07-0.05-0.11-0.07c-0.2-0.12-0.4-0.23-0.6-0.34
								c-0.25-0.14-0.49-0.29-0.74-0.43c-0.24-0.13-0.48-0.27-0.72-0.4c-0.25-0.14-0.5-0.28-0.76-0.42
								c-0.24-0.13-0.49-0.26-0.74-0.38c-0.25-0.14-0.51-0.27-0.77-0.4c-0.25-0.13-0.5-0.25-0.75-0.37
								c-0.26-0.13-0.52-0.25-0.78-0.38c-0.25-0.12-0.51-0.23-0.77-0.35c-0.26-0.12-0.52-0.24-0.79-0.36
								c-0.26-0.12-0.53-0.23-0.79-0.34c-0.26-0.12-0.53-0.23-0.79-0.34c-0.27-0.11-0.55-0.22-0.82-0.33
								c-0.26-0.11-0.52-0.21-0.79-0.31c-0.29-0.11-0.58-0.21-0.87-0.32c-0.26-0.09-0.52-0.19-0.78-0.28
								c-0.02-0.01-0.04-0.02-0.07-0.02c-0.27-0.1-0.55-0.19-0.82-0.28c-0.26-0.09-0.52-0.18-0.78-0.26c-0.3-0.1-0.6-0.19-0.9-0.28
								c-0.26-0.08-0.53-0.16-0.8-0.24c-0.3-0.09-0.6-0.16-0.9-0.24c-0.27-0.07-0.55-0.15-0.83-0.22c-0.3-0.08-0.61-0.15-0.91-0.22
								c-0.28-0.07-0.56-0.14-0.85-0.21c-0.31-0.07-0.62-0.13-0.93-0.19c-0.29-0.06-0.57-0.13-0.85-0.18
								c-0.32-0.06-0.65-0.12-0.97-0.18c-0.28-0.05-0.56-0.11-0.84-0.16c-0.36-0.06-0.72-0.11-1.08-0.16
								c-0.25-0.04-0.51-0.09-0.76-0.12c-0.62-0.08-1.24-0.16-1.87-0.22l0.3,0.51c-20.62,0.03-15.05,26.17-15.05,26.17
								L471.19,646.21z"/>
							
								<radialGradient id="SVGID_00000132058759301392769490000002247293713485488013_" cx="-164.8751" cy="1001.7053" r="25.4202" gradientTransform="matrix(0.9979 0.0645 -0.0645 0.9979 704.9439 -323.5038)" gradientUnits="userSpaceOnUse">
								<stop  offset="0" style="stop-color:#FFFFFF"/>
								<stop  offset="0.0243" style="stop-color:#F5F6F8"/>
								<stop  offset="0.1476" style="stop-color:#C7CFD6"/>
								<stop  offset="0.2754" style="stop-color:#9FADB9"/>
								<stop  offset="0.4061" style="stop-color:#7F91A1"/>
								<stop  offset="0.5405" style="stop-color:#667B8F"/>
								<stop  offset="0.6801" style="stop-color:#546C82"/>
								<stop  offset="0.8284" style="stop-color:#49637A"/>
								<stop  offset="1" style="stop-color:#466078"/>
							</radialGradient>
							<polygon style="fill:url(#SVGID_00000132058759301392769490000002247293713485488013_);" points="472.47,673.27 
								474.1,667.51 465.24,667.67 463.21,674.88 							"/>
							
								<radialGradient id="SVGID_00000078764709466449345540000016345655007218007453_" cx="-114.0371" cy="1005.4396" r="69.0324" gradientTransform="matrix(0.9979 0.0645 -0.0645 0.9979 704.9439 -323.5038)" gradientUnits="userSpaceOnUse">
								<stop  offset="0" style="stop-color:#466078"/>
								<stop  offset="0.0667" style="stop-color:#4B647C"/>
								<stop  offset="0.145" style="stop-color:#597086"/>
								<stop  offset="0.2291" style="stop-color:#718597"/>
								<stop  offset="0.3173" style="stop-color:#92A1AF"/>
								<stop  offset="0.4087" style="stop-color:#BCC6CE"/>
								<stop  offset="0.5016" style="stop-color:#EFF2F4"/>
								<stop  offset="0.5275" style="stop-color:#FFFFFF"/>
								<stop  offset="0.5674" style="stop-color:#E3E7EB"/>
								<stop  offset="0.6435" style="stop-color:#B4BEC8"/>
								<stop  offset="0.7195" style="stop-color:#8C9CAB"/>
								<stop  offset="0.794" style="stop-color:#6D8295"/>
								<stop  offset="0.8666" style="stop-color:#586F85"/>
								<stop  offset="0.9363" style="stop-color:#4A647B"/>
								<stop  offset="1" style="stop-color:#466078"/>
							</radialGradient>
							<path style="fill:url(#SVGID_00000078764709466449345540000016345655007218007453_);" d="M474.1,667.51
								c0.46-0.2,0.91-0.39,1.36-0.57c0.12-0.05,0.24-0.1,0.37-0.15c0.37-0.15,0.75-0.29,1.12-0.43c0.08-0.03,0.17-0.06,0.25-0.1
								c0.45-0.17,0.89-0.32,1.33-0.48c0.1-0.04,0.21-0.07,0.31-0.11c0.36-0.12,0.72-0.24,1.08-0.35c0.11-0.04,0.22-0.07,0.32-0.11
								c0.44-0.14,0.88-0.27,1.32-0.4c0.06-0.02,0.11-0.03,0.17-0.05c0.39-0.11,0.77-0.21,1.15-0.31c0.12-0.03,0.23-0.06,0.35-0.09
								c0.41-0.11,0.81-0.2,1.21-0.29c0.03-0.01,0.06-0.02,0.1-0.03c0.43-0.1,0.86-0.19,1.3-0.28c0.11-0.02,0.22-0.04,0.32-0.06
								c0.35-0.07,0.7-0.14,1.05-0.2c0.09-0.02,0.18-0.04,0.26-0.05c0.42-0.07,0.85-0.14,1.26-0.21c0.09-0.02,0.18-0.02,0.26-0.04
								c0.34-0.05,0.69-0.1,1.03-0.14c0.11-0.01,0.22-0.03,0.33-0.04c0.42-0.05,0.83-0.09,1.24-0.13c0.03,0,0.07,0,0.1-0.01
								c0.38-0.04,0.76-0.07,1.14-0.09c0.11-0.01,0.23-0.01,0.34-0.02c0.35-0.02,0.69-0.04,1.03-0.06c0.07,0,0.13,0,0.2-0.01
								c0.4-0.02,0.8-0.03,1.19-0.04c0.11,0,0.22,0,0.33,0c0.31,0,0.62,0,0.92,0c0.11,0,0.22,0,0.32,0
								c0.39,0.01,0.77,0.02,1.16,0.03c0.09,0.01,0.17,0.01,0.26,0.01c0.31,0.01,0.62,0.03,0.93,0.05c0.12,0.01,0.23,0.02,0.35,0.02
								c0.37,0.03,0.73,0.05,1.09,0.09c0.03,0,0.05,0,0.08,0.01c0.37,0.03,0.75,0.07,1.12,0.12c0.11,0.01,0.23,0.03,0.34,0.04
								c0.3,0.04,0.6,0.07,0.89,0.11c0.09,0.01,0.18,0.02,0.26,0.04c0.37,0.05,0.73,0.11,1.1,0.17c0.1,0.02,0.2,0.03,0.3,0.05
								c0.22,0.04,0.44,0.08,0.66,0.12c0.48,0.09,0.96,0.18,1.43,0.28c0.05,0.01,0.09,0.02,0.14,0.03c0.52,0.12,1.03,0.23,1.54,0.36
								c0.13,0.03,0.26,0.07,0.39,0.1c0.41,0.1,0.82,0.21,1.22,0.33c0.11,0.03,0.23,0.06,0.35,0.1c0.49,0.15,0.99,0.29,1.48,0.45
								c0.09,0.03,0.19,0.06,0.28,0.09c0.41,0.13,0.81,0.26,1.21,0.4c0.13,0.05,0.27,0.1,0.4,0.14c0.45,0.16,0.9,0.33,1.35,0.5
								c0.03,0.01,0.06,0.02,0.09,0.04c0.47,0.18,0.94,0.37,1.4,0.56c0.13,0.06,0.26,0.11,0.4,0.17c0.37,0.15,0.73,0.31,1.09,0.48
								c0.11,0.05,0.21,0.09,0.32,0.14c0.45,0.2,0.89,0.42,1.34,0.63c0.1,0.05,0.2,0.1,0.3,0.15c0.36,0.17,0.71,0.35,1.07,0.53
								c0.12,0.06,0.24,0.12,0.36,0.19c0.44,0.22,0.87,0.46,1.3,0.69c0.01,0.01,0.02,0.01,0.03,0.02c0.42,0.23,0.84,0.47,1.25,0.71
								c0.11,0.07,0.23,0.14,0.35,0.2c0.34,0.2,0.69,0.41,1.02,0.61c0.08,0.05,0.16,0.1,0.24,0.14c0.41,0.25,0.81,0.51,1.22,0.77
								c0.09,0.06,0.18,0.12,0.27,0.18c0.32,0.21,0.65,0.42,0.96,0.64c0.1,0.07,0.2,0.14,0.3,0.2c0.39,0.26,0.78,0.53,1.17,0.8
								c0.03,0.02,0.05,0.04,0.08,0.06c0.36,0.26,0.71,0.51,1.06,0.77c0.1,0.08,0.2,0.15,0.3,0.22c0.32,0.23,0.63,0.47,0.94,0.71
								c0.06,0.04,0.12,0.09,0.18,0.13c0.08,0.07,0.17,0.14,0.26,0.2c0.43,0.34,0.87,0.68,1.3,1.02c0.14,0.12,0.28,0.23,0.42,0.34
								c0.44,0.35,0.86,0.71,1.29,1.07c0.06,0.05,0.11,0.09,0.17,0.14c0.47,0.4,0.93,0.8,1.38,1.2c0.13,0.11,0.24,0.22,0.37,0.33
								c0.36,0.32,0.71,0.64,1.06,0.96c0.1,0.1,0.2,0.19,0.3,0.29c0.43,0.4,0.84,0.79,1.25,1.19c0.09,0.09,0.18,0.18,0.28,0.27
								c0.33,0.32,0.65,0.64,0.96,0.96c0.11,0.11,0.21,0.22,0.32,0.32c0.38,0.39,0.76,0.78,1.13,1.16c0.03,0.03,0.05,0.06,0.08,0.09
								c0.34,0.36,0.68,0.72,1,1.07c0.11,0.12,0.21,0.23,0.32,0.35c0.19,0.2,0.36,0.4,0.55,0.6c0.11,0.12,0.22,0.25,0.32,0.36
								c0.18,0.21,0.36,0.41,0.54,0.61c0.1,0.11,0.19,0.21,0.28,0.32c0.25,0.29,0.49,0.57,0.73,0.85c0.01,0.01,0.02,0.03,0.03,0.04
								c0.26,0.3,0.51,0.6,0.75,0.89c0.01,0.01,0.02,0.03,0.03,0.04c0.23,0.28,0.46,0.56,0.67,0.83c0.02,0.02,0.03,0.04,0.05,0.06
								c0.22,0.27,0.43,0.53,0.63,0.79c0.01,0.01,0.02,0.02,0.02,0.03c0.21,0.27,0.41,0.53,0.61,0.78c0,0,0,0,0.01,0.01
								c0.19,0.26,0.38,0.5,0.56,0.73c0,0.01,0.01,0.01,0.01,0.01c0.08,0.11,0.16,0.21,0.23,0.31c0.01,0.02,0.03,0.03,0.04,0.05
								c0.07,0.09,0.13,0.18,0.19,0.27c0.01,0.02,0.03,0.05,0.05,0.07c0.06,0.08,0.12,0.16,0.18,0.24c0.02,0.03,0.03,0.05,0.06,0.07
								c0.07,0.1,0.13,0.19,0.2,0.28c0.02,0.03,0.05,0.07,0.07,0.1c0.04,0.06,0.08,0.11,0.12,0.17c0.03,0.04,0.06,0.08,0.09,0.13
								c0.03,0.04,0.06,0.09,0.09,0.12c0.03,0.04,0.06,0.09,0.09,0.13c0.03,0.04,0.06,0.09,0.09,0.12c0.02,0.03,0.04,0.07,0.07,0.1
								c0.04,0.05,0.07,0.1,0.11,0.15c0.01,0.02,0.03,0.04,0.04,0.06c0.03,0.05,0.06,0.09,0.09,0.13c0.02,0.03,0.04,0.06,0.06,0.09
								l0,0c0.33,0.48,0.54,0.81,0.64,0.96l10.99,7.73c-0.06-0.08-0.14-0.21-0.24-0.36c-0.01-0.01-0.01-0.01-0.02-0.02
								c-0.02-0.04-0.05-0.08-0.08-0.13c-0.01-0.02-0.03-0.04-0.04-0.06c-0.02-0.04-0.05-0.08-0.08-0.12
								c-0.01-0.03-0.04-0.05-0.05-0.08c-0.03-0.05-0.06-0.09-0.1-0.14c-0.02-0.03-0.03-0.05-0.05-0.08
								c-0.05-0.07-0.1-0.15-0.16-0.23c-0.01-0.02-0.03-0.05-0.05-0.07c-0.04-0.06-0.09-0.13-0.14-0.2c0-0.01-0.01-0.01-0.01-0.02
								c-0.01-0.01-0.02-0.03-0.03-0.04c-0.05-0.08-0.1-0.15-0.16-0.23c-0.01-0.02-0.02-0.04-0.04-0.06
								c-0.06-0.08-0.12-0.17-0.18-0.25c-0.02-0.02-0.03-0.04-0.04-0.06c-0.06-0.08-0.12-0.17-0.19-0.26
								c-0.02-0.03-0.03-0.05-0.05-0.08c-0.06-0.09-0.13-0.18-0.19-0.27c-0.02-0.03-0.04-0.06-0.06-0.09
								c-0.08-0.12-0.17-0.23-0.25-0.34c-0.04-0.06-0.09-0.12-0.14-0.19c-0.04-0.06-0.08-0.12-0.13-0.18
								c-0.05-0.07-0.11-0.15-0.16-0.22c-0.04-0.05-0.08-0.1-0.12-0.16c-0.06-0.08-0.12-0.17-0.19-0.25
								c-0.03-0.05-0.07-0.1-0.11-0.15c-0.03-0.05-0.07-0.09-0.1-0.14c-0.03-0.04-0.06-0.08-0.08-0.12
								c-0.04-0.06-0.09-0.11-0.13-0.17c-0.06-0.09-0.13-0.17-0.19-0.25c-0.05-0.06-0.1-0.12-0.14-0.19
								c-0.07-0.08-0.13-0.17-0.19-0.25c-0.06-0.08-0.12-0.15-0.18-0.23c-0.1-0.13-0.2-0.26-0.3-0.39
								c-0.07-0.09-0.14-0.19-0.22-0.28c-0.05-0.07-0.11-0.13-0.16-0.2c-0.08-0.1-0.15-0.19-0.23-0.29
								c-0.06-0.07-0.11-0.14-0.17-0.21c-0.08-0.1-0.16-0.2-0.24-0.3c-0.06-0.07-0.11-0.13-0.16-0.2c-0.08-0.11-0.17-0.22-0.27-0.33
								c-0.05-0.06-0.1-0.12-0.15-0.18c-0.1-0.13-0.2-0.25-0.31-0.38c-0.03-0.04-0.06-0.08-0.09-0.12c-0.01,0-0.01-0.01-0.02-0.02
								c-0.3-0.37-0.61-0.74-0.93-1.12c-0.02-0.02-0.04-0.05-0.06-0.07c-0.26-0.31-0.52-0.61-0.78-0.92
								c-0.03-0.04-0.07-0.08-0.1-0.11c-0.13-0.15-0.26-0.3-0.39-0.45c-0.21-0.23-0.41-0.47-0.63-0.71c-0.15-0.17-0.3-0.33-0.45-0.5
								c-0.21-0.23-0.42-0.46-0.63-0.7c-0.09-0.1-0.17-0.19-0.26-0.28c-0.11-0.13-0.23-0.26-0.35-0.38
								c-0.07-0.07-0.14-0.15-0.21-0.22c-0.32-0.35-0.65-0.69-0.99-1.05c-0.01-0.01-0.02-0.02-0.03-0.03
								c-0.32-0.33-0.64-0.67-0.97-1c-0.08-0.09-0.17-0.17-0.25-0.26c-0.3-0.31-0.6-0.61-0.91-0.92c-0.05-0.05-0.1-0.1-0.15-0.15
								c-0.35-0.36-0.72-0.71-1.08-1.07c-0.09-0.08-0.17-0.16-0.25-0.24c-0.3-0.29-0.61-0.58-0.92-0.87
								c-0.09-0.09-0.18-0.17-0.27-0.26c-0.38-0.36-0.77-0.72-1.17-1.08c-0.04-0.04-0.09-0.08-0.13-0.12
								c-0.35-0.32-0.71-0.64-1.07-0.96c-0.11-0.1-0.22-0.19-0.32-0.28c-0.37-0.32-0.74-0.64-1.11-0.96
								c-0.05-0.04-0.09-0.08-0.14-0.12c-0.42-0.36-0.85-0.72-1.28-1.07c-0.1-0.09-0.21-0.17-0.31-0.26
								c-0.35-0.29-0.71-0.58-1.07-0.87c-0.1-0.08-0.2-0.16-0.3-0.24c-0.42-0.33-0.84-0.66-1.26-0.99c-0.03-0.02-0.07-0.05-0.1-0.07
								c-0.07-0.05-0.14-0.1-0.21-0.16c-0.4-0.3-0.8-0.6-1.2-0.9c-0.12-0.09-0.24-0.18-0.37-0.27c-0.45-0.33-0.9-0.65-1.35-0.98
								c-0.02-0.02-0.04-0.03-0.07-0.05c-0.01,0-0.01-0.01-0.01-0.01c-0.48-0.34-0.97-0.68-1.47-1.01
								c-0.12-0.09-0.25-0.17-0.37-0.25c-0.4-0.27-0.8-0.53-1.21-0.8c-0.11-0.07-0.22-0.15-0.34-0.22c-0.5-0.32-1.01-0.64-1.52-0.96
								c-0.1-0.06-0.2-0.12-0.3-0.18c-0.42-0.26-0.86-0.52-1.29-0.77c-0.14-0.09-0.29-0.17-0.43-0.25c-0.52-0.3-1.04-0.6-1.58-0.89
								c-0.01,0-0.02-0.01-0.03-0.01c-0.54-0.3-1.08-0.58-1.63-0.87c-0.15-0.08-0.3-0.16-0.45-0.23c-0.45-0.23-0.9-0.46-1.35-0.68
								c-0.12-0.06-0.24-0.12-0.36-0.18c-0.56-0.27-1.12-0.53-1.69-0.79c-0.13-0.06-0.25-0.11-0.38-0.17
								c-0.46-0.2-0.93-0.41-1.39-0.61c-0.16-0.07-0.32-0.13-0.47-0.2c-0.11-0.05-0.22-0.09-0.33-0.14
								c-0.48-0.2-0.95-0.39-1.43-0.57c-0.03-0.01-0.06-0.02-0.09-0.03c-0.57-0.22-1.14-0.43-1.71-0.63
								c-0.17-0.06-0.33-0.12-0.5-0.18c-0.5-0.18-1-0.34-1.51-0.51c-0.12-0.04-0.24-0.08-0.36-0.12c-0.61-0.19-1.23-0.38-1.85-0.56
								c-0.15-0.04-0.3-0.08-0.45-0.12c-0.5-0.14-1-0.27-1.5-0.4c-0.17-0.04-0.34-0.09-0.51-0.13c-0.63-0.16-1.27-0.31-1.92-0.44
								c-0.07-0.02-0.15-0.03-0.22-0.05c-0.58-0.12-1.15-0.23-1.74-0.34c-0.09-0.02-0.18-0.04-0.28-0.05
								c-0.2-0.04-0.4-0.07-0.61-0.11c-0.11-0.02-0.22-0.04-0.32-0.06c-0.47-0.08-0.94-0.15-1.41-0.21
								c-0.09-0.01-0.18-0.02-0.27-0.04c-0.4-0.06-0.79-0.11-1.19-0.16c-0.13-0.02-0.26-0.03-0.38-0.05
								c-0.48-0.05-0.96-0.1-1.45-0.15c0,0-0.01,0-0.01,0c-0.48-0.05-0.97-0.08-1.45-0.11c-0.13-0.01-0.26-0.02-0.39-0.03
								c-0.41-0.02-0.82-0.04-1.23-0.06c-0.09,0-0.18-0.01-0.27-0.01c-0.49-0.02-0.98-0.03-1.48-0.04c-0.04,0-0.08,0-0.12,0
								c-0.08,0-0.16,0-0.24,0c-0.4-0.01-0.8-0.01-1.2,0c-0.13,0-0.25,0-0.38,0c-0.5,0.01-1,0.02-1.51,0.04
								c-0.08,0-0.16,0.01-0.24,0.01c-0.44,0.02-0.87,0.04-1.32,0.07c-0.14,0.01-0.28,0.02-0.42,0.03
								c-0.48,0.03-0.95,0.07-1.43,0.11c-0.04,0-0.08,0.01-0.12,0.01c-0.52,0.05-1.04,0.11-1.56,0.17
								c-0.14,0.02-0.27,0.03-0.41,0.05c-0.43,0.05-0.85,0.11-1.28,0.17c-0.11,0.02-0.22,0.03-0.33,0.05
								c-0.52,0.08-1.05,0.16-1.58,0.25c-0.11,0.02-0.23,0.04-0.34,0.06c-0.44,0.08-0.87,0.16-1.31,0.25
								c-0.14,0.03-0.28,0.06-0.42,0.09c-0.54,0.11-1.08,0.22-1.62,0.35c-0.05,0.01-0.09,0.02-0.14,0.03c-0.5,0.12-1,0.24-1.5,0.37
								c-0.15,0.04-0.29,0.07-0.44,0.11c-0.48,0.12-0.95,0.26-1.43,0.39c-0.08,0.02-0.16,0.04-0.23,0.06
								c-0.55,0.16-1.1,0.33-1.65,0.5c-0.14,0.04-0.28,0.09-0.42,0.13c-0.45,0.14-0.89,0.28-1.34,0.44
								c-0.13,0.05-0.26,0.09-0.39,0.13c-0.56,0.19-1.11,0.39-1.67,0.6c-0.1,0.04-0.21,0.08-0.32,0.12
								c-0.47,0.18-0.93,0.36-1.4,0.54c-0.15,0.06-0.31,0.13-0.46,0.19c-0.57,0.23-1.13,0.46-1.71,0.71L474.1,667.51z"/>
							
								<radialGradient id="SVGID_00000034809232180944396880000013739855816568388795_" cx="13.0629" cy="2187.53" r="154.8227" gradientTransform="matrix(-0.565 0.8251 -0.8251 -0.565 2335.7314 1867.9967)" gradientUnits="userSpaceOnUse">
								<stop  offset="5.494510e-03" style="stop-color:#FFFFFF"/>
								<stop  offset="0.1264" style="stop-color:#04BFFF"/>
								<stop  offset="0.1505" style="stop-color:#04A3DF"/>
								<stop  offset="0.187" style="stop-color:#047FB5"/>
								<stop  offset="0.2255" style="stop-color:#045F90"/>
								<stop  offset="0.2657" style="stop-color:#044673"/>
								<stop  offset="0.3081" style="stop-color:#04325C"/>
								<stop  offset="0.3536" style="stop-color:#04244C"/>
								<stop  offset="0.4047" style="stop-color:#041C42"/>
								<stop  offset="0.4725" style="stop-color:#04193F"/>
							</radialGradient>
							<path style="fill:url(#SVGID_00000034809232180944396880000013739855816568388795_);" d="M514.07,652.17
								c-10.02-4.01-19.18-5.43-26.99-5.52c-7.81-0.09-14.27,1.15-18.91,2.49c-4.63,1.33-7.45,2.75-7.96,3l3,22.74l2.03-7.22
								c14.39-6.2,27.61-7.14,39.38-5.03c11.77,2.12,22.09,7.29,30.68,13.35c8.59,6.05,15.44,12.97,20.28,18.58
								c4.83,5.61,7.64,9.89,8.16,10.67c0.14-4.78,0.03-9.32-0.31-13.64c-0.34-4.32-0.92-8.42-1.68-12.3
								c-0.77-3.88-1.74-7.55-2.87-11.02c-1.14-3.47-2.44-6.74-3.88-9.82c-4.72-10.08-10.8-18.09-17.3-24.46
								c-6.5-6.36-13.41-11.08-19.8-14.54c-6.39-3.47-12.25-5.68-16.65-7.06c-0.22-0.07-0.43-0.13-0.65-0.2l0,0
								c0,0-2.34-0.83-5.85-1.53c-0.71-0.15-1.19-0.24-1.37-0.27l-0.02,0.02c-12.66-2.16-36.2-2.76-26.92,37.88
								c0,0,0.53-0.32,2.8-1.27c0,0-9.31-31.11,21.84-24.32c6.52,1.66,12.45,4.27,17.79,7.47c7.67,4.59,14.14,10.38,19.43,16.2
								c5.29,5.82,9.39,11.68,12.34,16.43c2.95,4.75,4.73,8.39,5.37,9.76c0.05,0.1,0.09,0.18,0.12,0.25
								c0.03,0.08,0.06,0.14,0.08,0.19c0.03,0.05,0.04,0.09,0.05,0.11c0.01,0.03,0.02,0.04,0.02,0.04
								C534.99,662.75,524.09,656.17,514.07,652.17z"/>
							
								<radialGradient id="SVGID_00000023240142133200202930000009482137709833654656_" cx="164.0033" cy="2202.8689" r="93.8522" gradientTransform="matrix(-0.565 0.8251 -0.8251 -0.565 2335.7314 1867.9967)" gradientUnits="userSpaceOnUse">
								<stop  offset="0" style="stop-color:#FFFFFF"/>
								<stop  offset="0.0243" style="stop-color:#F5F6F8"/>
								<stop  offset="0.1476" style="stop-color:#C7CFD6"/>
								<stop  offset="0.2754" style="stop-color:#9FADB9"/>
								<stop  offset="0.4061" style="stop-color:#7F91A1"/>
								<stop  offset="0.5405" style="stop-color:#667B8F"/>
								<stop  offset="0.6801" style="stop-color:#546C82"/>
								<stop  offset="0.8284" style="stop-color:#49637A"/>
								<stop  offset="1" style="stop-color:#466078"/>
							</radialGradient>
							<path style="fill:url(#SVGID_00000023240142133200202930000009482137709833654656_);" d="M455.6,765.74l-3.08-2.31
								c-15.61,14.71-22.65,5.13-25.3-1.05c-0.07-0.19-0.13-0.37-0.2-0.56c-0.11-0.31-0.23-0.62-0.33-0.93
								c-0.09-0.28-0.18-0.55-0.27-0.83c-0.1-0.3-0.2-0.6-0.3-0.9c-0.08-0.28-0.16-0.56-0.25-0.83c-0.09-0.3-0.18-0.6-0.27-0.9
								c-0.08-0.28-0.15-0.55-0.22-0.83c-0.08-0.3-0.16-0.61-0.24-0.9c-0.07-0.27-0.13-0.54-0.19-0.81
								c-0.07-0.31-0.15-0.61-0.21-0.92c-0.06-0.27-0.11-0.54-0.17-0.8c-0.06-0.29-0.12-0.57-0.17-0.86
								c-0.01-0.02-0.01-0.04-0.01-0.07c-0.05-0.27-0.1-0.54-0.15-0.81c-0.05-0.3-0.11-0.61-0.16-0.9
								c-0.05-0.29-0.08-0.56-0.13-0.85c-0.04-0.29-0.09-0.58-0.13-0.88c-0.04-0.28-0.07-0.57-0.11-0.86
								c-0.03-0.29-0.07-0.57-0.1-0.85c-0.03-0.29-0.06-0.57-0.09-0.86c-0.03-0.28-0.06-0.56-0.08-0.85
								c-0.02-0.29-0.04-0.57-0.06-0.86c-0.02-0.28-0.04-0.56-0.06-0.84c-0.01-0.29-0.03-0.58-0.04-0.87
								c-0.01-0.28-0.03-0.55-0.04-0.83c-0.01-0.29-0.01-0.57-0.02-0.86c-0.01-0.27-0.01-0.55-0.02-0.82c0-0.28,0-0.57,0-0.86
								c0-0.23,0-0.46,0-0.69c0-0.04,0-0.08,0-0.13c0-0.05,0-0.09,0-0.14c0-0.23,0.01-0.47,0.02-0.7c0.01-0.28,0.01-0.55,0.02-0.83
								c0.01-0.27,0.02-0.54,0.04-0.82c0.01-0.28,0.02-0.56,0.04-0.84c0.02-0.27,0.04-0.54,0.05-0.81c0.02-0.28,0.04-0.56,0.06-0.83
								c0.02-0.27,0.05-0.54,0.07-0.81c0.02-0.27,0.05-0.54,0.08-0.82c0.02-0.27,0.05-0.54,0.08-0.81c0.03-0.27,0.06-0.54,0.09-0.81
								c0.03-0.27,0.07-0.53,0.1-0.8c0.04-0.26,0.07-0.53,0.11-0.79c0.04-0.26,0.08-0.53,0.12-0.79c0.04-0.27,0.08-0.54,0.12-0.8
								c0.04-0.26,0.08-0.51,0.13-0.77c0.03-0.2,0.06-0.41,0.1-0.61c0.01-0.06,0.02-0.13,0.03-0.19c0.05-0.25,0.09-0.5,0.14-0.75
								c0.05-0.27,0.1-0.54,0.15-0.81c0.05-0.24,0.1-0.48,0.15-0.73c0.06-0.27,0.11-0.54,0.17-0.81c0.05-0.24,0.11-0.48,0.16-0.72
								c0.06-0.27,0.12-0.53,0.18-0.8c0.06-0.24,0.11-0.48,0.17-0.72c0.06-0.26,0.12-0.52,0.19-0.78c0.06-0.24,0.12-0.48,0.18-0.72
								c0.07-0.25,0.13-0.51,0.2-0.76c0.07-0.24,0.13-0.47,0.2-0.71c0.07-0.25,0.14-0.5,0.21-0.74c0.07-0.24,0.14-0.47,0.21-0.71
								c0.07-0.24,0.14-0.48,0.21-0.72c0.07-0.24,0.14-0.48,0.21-0.71c0.05-0.16,0.1-0.32,0.15-0.48c0.02-0.07,0.05-0.15,0.07-0.22
								c0.02-0.07,0.04-0.15,0.07-0.22c0.05-0.16,0.1-0.31,0.15-0.47c0.08-0.24,0.15-0.47,0.23-0.7c0.08-0.23,0.15-0.46,0.23-0.68
								c0.08-0.23,0.15-0.46,0.23-0.69c0.08-0.23,0.16-0.45,0.24-0.67c0.08-0.23,0.16-0.45,0.24-0.67c0.08-0.22,0.16-0.43,0.24-0.65
								c0.05-0.14,0.11-0.29,0.16-0.43c0.03-0.08,0.06-0.16,0.09-0.24c0.08-0.21,0.16-0.43,0.24-0.63c0.09-0.22,0.17-0.43,0.25-0.65
								c0.08-0.21,0.16-0.42,0.25-0.63c0.08-0.21,0.17-0.43,0.25-0.64c0.08-0.2,0.16-0.4,0.24-0.6c0.09-0.21,0.18-0.43,0.27-0.64
								c0.08-0.19,0.16-0.37,0.24-0.56c0.05-0.13,0.11-0.27,0.17-0.4c0.04-0.08,0.07-0.17,0.11-0.25c0.08-0.19,0.16-0.37,0.24-0.55
								c0.09-0.21,0.18-0.41,0.27-0.61c0.08-0.19,0.17-0.38,0.25-0.57c0.09-0.19,0.17-0.39,0.26-0.57c0.08-0.19,0.17-0.37,0.26-0.56
								c0.09-0.19,0.17-0.38,0.26-0.56c0.08-0.17,0.17-0.35,0.25-0.52c0.05-0.11,0.1-0.22,0.15-0.33c0.04-0.08,0.08-0.16,0.12-0.24
								c0.08-0.17,0.16-0.33,0.24-0.5c0.09-0.18,0.18-0.36,0.27-0.54c0.08-0.17,0.17-0.33,0.25-0.51c0.09-0.17,0.17-0.34,0.26-0.5
								c0.09-0.17,0.17-0.34,0.26-0.5c0.08-0.15,0.16-0.31,0.24-0.47c0.09-0.18,0.18-0.35,0.27-0.52c0.04-0.07,0.08-0.15,0.12-0.22
								c0.03-0.06,0.06-0.12,0.1-0.18c0.04-0.08,0.09-0.17,0.13-0.25c0.06-0.11,0.11-0.21,0.17-0.31c0.07-0.12,0.14-0.25,0.2-0.38
								c0.1-0.17,0.19-0.34,0.28-0.51c0.07-0.13,0.14-0.26,0.21-0.38c0.09-0.16,0.18-0.32,0.27-0.48c0.07-0.12,0.14-0.25,0.21-0.37
								c0.09-0.16,0.18-0.31,0.26-0.46c0.04-0.08,0.09-0.15,0.13-0.23c0.02-0.04,0.05-0.08,0.07-0.12c0.09-0.15,0.17-0.3,0.26-0.45
								c0.06-0.11,0.12-0.21,0.19-0.32c0.08-0.14,0.16-0.27,0.24-0.41c0.06-0.11,0.13-0.22,0.2-0.33c0.07-0.11,0.13-0.22,0.2-0.34
								c0.07-0.12,0.15-0.25,0.22-0.36c0.06-0.09,0.11-0.18,0.16-0.26c0.06-0.1,0.12-0.2,0.18-0.29c0.02-0.03,0.04-0.06,0.06-0.09
								c0.05-0.08,0.09-0.15,0.14-0.23c0.07-0.12,0.15-0.24,0.23-0.36c0.02-0.04,0.05-0.08,0.07-0.12l-1.13-3.02
								c0,0-0.01,0.01-0.03,0.03c-0.02,0.03-0.04,0.06-0.07,0.11c-0.03,0.04-0.07,0.1-0.12,0.16c-0.05,0.06-0.1,0.14-0.16,0.23
								c-0.06,0.08-0.11,0.17-0.18,0.26c-0.01,0.02-0.02,0.03-0.03,0.05c-0.06,0.09-0.12,0.17-0.18,0.27
								c-0.02,0.03-0.05,0.07-0.07,0.1c-0.06,0.09-0.11,0.17-0.18,0.26c-0.02,0.03-0.05,0.07-0.07,0.1c-0.07,0.1-0.14,0.2-0.21,0.31
								c0,0-0.01,0.01-0.01,0.01c-0.02,0.03-0.05,0.07-0.07,0.1c-0.07,0.11-0.14,0.22-0.22,0.34c-0.04,0.07-0.08,0.13-0.13,0.2
								c-0.07,0.1-0.13,0.2-0.19,0.3c-0.06,0.09-0.12,0.19-0.19,0.29c-0.05,0.08-0.1,0.16-0.16,0.25c-0.07,0.12-0.15,0.24-0.23,0.36
								c-0.04,0.08-0.09,0.15-0.14,0.23c-0.02,0.03-0.04,0.06-0.06,0.09c-0.06,0.09-0.12,0.2-0.18,0.29
								c-0.05,0.09-0.11,0.17-0.16,0.26c-0.07,0.12-0.15,0.24-0.22,0.36c-0.07,0.11-0.13,0.22-0.2,0.34
								c-0.07,0.11-0.13,0.22-0.2,0.33c-0.08,0.13-0.16,0.27-0.24,0.41c-0.06,0.1-0.12,0.21-0.19,0.32
								c-0.09,0.15-0.18,0.3-0.26,0.45c-0.02,0.04-0.05,0.08-0.07,0.12c-0.04,0.07-0.09,0.15-0.13,0.22
								c-0.09,0.16-0.17,0.31-0.26,0.47c-0.07,0.12-0.14,0.25-0.21,0.37c-0.09,0.16-0.18,0.32-0.27,0.48
								c-0.07,0.13-0.14,0.26-0.21,0.38c-0.09,0.17-0.19,0.34-0.28,0.52c-0.07,0.12-0.14,0.25-0.2,0.38c-0.05,0.1-0.11,0.2-0.17,0.3
								c-0.04,0.08-0.09,0.17-0.13,0.25c-0.03,0.06-0.06,0.12-0.09,0.18c-0.04,0.07-0.08,0.14-0.12,0.22
								c-0.09,0.17-0.18,0.35-0.27,0.52c-0.08,0.15-0.16,0.31-0.24,0.46c-0.09,0.17-0.17,0.34-0.26,0.5
								c-0.09,0.17-0.17,0.34-0.26,0.51c-0.08,0.17-0.16,0.33-0.25,0.5c-0.09,0.18-0.18,0.36-0.27,0.54
								c-0.08,0.16-0.16,0.33-0.24,0.5c-0.04,0.08-0.08,0.16-0.12,0.24c-0.05,0.11-0.1,0.22-0.16,0.33
								c-0.08,0.17-0.16,0.35-0.25,0.52c-0.09,0.19-0.18,0.37-0.26,0.56c-0.09,0.18-0.17,0.37-0.26,0.56
								c-0.09,0.19-0.17,0.38-0.26,0.57c-0.08,0.19-0.17,0.37-0.26,0.57c-0.09,0.2-0.18,0.41-0.27,0.61
								c-0.08,0.18-0.16,0.36-0.24,0.54c-0.04,0.09-0.07,0.17-0.11,0.26c-0.05,0.13-0.11,0.27-0.17,0.4
								c-0.08,0.18-0.16,0.37-0.24,0.55c-0.09,0.21-0.18,0.43-0.27,0.64c-0.08,0.2-0.16,0.4-0.25,0.61
								c-0.09,0.21-0.17,0.42-0.25,0.63c-0.08,0.21-0.17,0.42-0.25,0.63c-0.08,0.21-0.17,0.43-0.25,0.65
								c-0.08,0.21-0.16,0.42-0.24,0.63c-0.03,0.08-0.06,0.16-0.09,0.24c-0.06,0.14-0.11,0.29-0.16,0.43
								c-0.08,0.22-0.16,0.44-0.24,0.66c-0.08,0.22-0.16,0.44-0.24,0.67c-0.08,0.22-0.16,0.45-0.24,0.67
								c-0.08,0.23-0.16,0.45-0.23,0.68c-0.08,0.23-0.16,0.45-0.23,0.68c-0.08,0.24-0.15,0.46-0.23,0.7
								c-0.05,0.16-0.1,0.31-0.15,0.47c-0.02,0.07-0.05,0.15-0.07,0.23c-0.02,0.07-0.05,0.15-0.07,0.22
								c-0.05,0.16-0.1,0.32-0.14,0.48c-0.07,0.24-0.15,0.47-0.22,0.71c-0.07,0.24-0.14,0.48-0.21,0.72
								c-0.07,0.23-0.14,0.47-0.21,0.71c-0.07,0.25-0.14,0.5-0.21,0.74c-0.07,0.24-0.13,0.48-0.19,0.72
								c-0.07,0.25-0.13,0.5-0.2,0.76c-0.06,0.24-0.13,0.48-0.19,0.72c-0.06,0.26-0.13,0.52-0.19,0.78
								c-0.06,0.24-0.12,0.48-0.17,0.72c-0.06,0.26-0.12,0.53-0.18,0.79c-0.05,0.24-0.11,0.48-0.16,0.72
								c-0.06,0.27-0.11,0.54-0.17,0.81c-0.05,0.24-0.1,0.49-0.15,0.73c-0.05,0.26-0.1,0.53-0.15,0.81
								c-0.05,0.25-0.09,0.5-0.14,0.75c-0.01,0.07-0.02,0.12-0.03,0.19c-0.04,0.2-0.07,0.41-0.1,0.61
								c-0.04,0.26-0.09,0.52-0.13,0.78c-0.04,0.26-0.08,0.53-0.12,0.79c-0.04,0.26-0.08,0.52-0.11,0.79
								c-0.04,0.26-0.07,0.53-0.11,0.8c-0.03,0.27-0.07,0.53-0.1,0.81c-0.03,0.27-0.06,0.53-0.09,0.81
								c-0.03,0.27-0.06,0.54-0.09,0.81c-0.03,0.27-0.05,0.55-0.08,0.82c-0.02,0.27-0.05,0.54-0.07,0.81
								c-0.02,0.28-0.04,0.56-0.06,0.83c-0.02,0.27-0.04,0.54-0.05,0.81c-0.02,0.28-0.03,0.56-0.04,0.84
								c-0.01,0.27-0.03,0.55-0.04,0.82c-0.01,0.28-0.02,0.55-0.02,0.83c0,0.23-0.02,0.47-0.02,0.7c0,0.05,0,0.09,0,0.13
								c0,0.04,0,0.09,0,0.13c0,0.23,0,0.46,0,0.69c0,0.28,0,0.57,0,0.86c0,0.27,0.01,0.55,0.02,0.82c0.01,0.29,0.01,0.58,0.02,0.86
								c0.01,0.28,0.02,0.55,0.04,0.83c0.01,0.29,0.02,0.57,0.04,0.86c0.02,0.28,0.04,0.56,0.06,0.84c0.02,0.29,0.04,0.58,0.06,0.86
								c0.02,0.28,0.05,0.56,0.08,0.84c0.03,0.29,0.05,0.58,0.08,0.87c0.03,0.28,0.07,0.57,0.1,0.85c0.04,0.29,0.07,0.57,0.11,0.86
								c0.04,0.29,0.08,0.59,0.13,0.88c0.04,0.28,0.08,0.56,0.13,0.83c0.05,0.31,0.11,0.61,0.16,0.91c0.05,0.27,0.09,0.54,0.15,0.81
								c0,0.03,0.01,0.05,0.01,0.08c0.06,0.28,0.12,0.57,0.18,0.85c0.06,0.27,0.11,0.54,0.17,0.81c0.07,0.31,0.14,0.61,0.21,0.92
								c0.06,0.27,0.13,0.54,0.19,0.81c0.08,0.3,0.16,0.61,0.24,0.91c0.07,0.28,0.14,0.55,0.22,0.83c0.08,0.3,0.18,0.6,0.27,0.9
								c0.08,0.28,0.16,0.55,0.25,0.83c0.09,0.3,0.19,0.61,0.29,0.9c0.09,0.27,0.18,0.56,0.27,0.83c0.11,0.31,0.22,0.62,0.33,0.93
								c0.1,0.27,0.19,0.54,0.29,0.81c0.13,0.34,0.27,0.68,0.4,1.02c0.09,0.24,0.18,0.48,0.28,0.72c0.24,0.58,0.48,1.15,0.74,1.73
								l0.29-0.52C436.04,783.64,455.6,765.74,455.6,765.74z"/>
							
								<radialGradient id="SVGID_00000027603446418841253930000015600552290451986058_" cx="543.0895" cy="1643.6982" r="25.4317" gradientTransform="matrix(-0.4444 -0.8958 0.8958 -0.4444 -764.081 1966.6219)" gradientUnits="userSpaceOnUse">
								<stop  offset="0" style="stop-color:#FFFFFF"/>
								<stop  offset="0.0243" style="stop-color:#F5F6F8"/>
								<stop  offset="0.1476" style="stop-color:#C7CFD6"/>
								<stop  offset="0.2754" style="stop-color:#9FADB9"/>
								<stop  offset="0.4061" style="stop-color:#7F91A1"/>
								<stop  offset="0.5405" style="stop-color:#667B8F"/>
								<stop  offset="0.6801" style="stop-color:#546C82"/>
								<stop  offset="0.8284" style="stop-color:#49637A"/>
								<stop  offset="1" style="stop-color:#466078"/>
							</radialGradient>
							<polygon style="fill:url(#SVGID_00000027603446418841253930000015600552290451986058_);" points="475.42,748.63 
								469.62,750.12 474.2,757.7 481.47,755.84 							"/>
							
								<radialGradient id="SVGID_00000183953175071907173340000007519687320487907985_" cx="593.9264" cy="1647.4358" r="69.0317" gradientTransform="matrix(-0.4444 -0.8958 0.8958 -0.4444 -764.081 1966.6219)" gradientUnits="userSpaceOnUse">
								<stop  offset="0" style="stop-color:#466078"/>
								<stop  offset="0.0667" style="stop-color:#4B647C"/>
								<stop  offset="0.145" style="stop-color:#597086"/>
								<stop  offset="0.2291" style="stop-color:#718597"/>
								<stop  offset="0.3173" style="stop-color:#92A1AF"/>
								<stop  offset="0.4087" style="stop-color:#BCC6CE"/>
								<stop  offset="0.5016" style="stop-color:#EFF2F4"/>
								<stop  offset="0.5275" style="stop-color:#FFFFFF"/>
								<stop  offset="0.5674" style="stop-color:#E3E7EB"/>
								<stop  offset="0.6435" style="stop-color:#B4BEC8"/>
								<stop  offset="0.7195" style="stop-color:#8C9CAB"/>
								<stop  offset="0.794" style="stop-color:#6D8295"/>
								<stop  offset="0.8666" style="stop-color:#586F85"/>
								<stop  offset="0.9363" style="stop-color:#4A647B"/>
								<stop  offset="1" style="stop-color:#466078"/>
							</radialGradient>
							<path style="fill:url(#SVGID_00000183953175071907173340000007519687320487907985_);" d="M469.62,750.12
								c-0.4-0.3-0.79-0.59-1.17-0.9c-0.1-0.08-0.21-0.16-0.31-0.24c-0.32-0.25-0.63-0.5-0.94-0.76c-0.07-0.06-0.14-0.12-0.21-0.17
								c-0.36-0.3-0.72-0.61-1.08-0.92c-0.08-0.07-0.16-0.14-0.25-0.21c-0.29-0.25-0.57-0.5-0.85-0.76
								c-0.08-0.08-0.17-0.15-0.25-0.23c-0.34-0.32-0.68-0.63-1.01-0.94c-0.04-0.05-0.09-0.08-0.13-0.13
								c-0.29-0.28-0.57-0.56-0.85-0.84c-0.08-0.09-0.17-0.17-0.25-0.26c-0.29-0.3-0.58-0.6-0.86-0.9
								c-0.02-0.02-0.04-0.05-0.07-0.07c-0.3-0.32-0.6-0.65-0.89-0.98c-0.07-0.08-0.15-0.17-0.22-0.25
								c-0.24-0.27-0.47-0.54-0.7-0.81c-0.06-0.07-0.12-0.14-0.17-0.21c-0.28-0.33-0.54-0.66-0.81-0.99
								c-0.06-0.08-0.11-0.14-0.17-0.21c-0.22-0.28-0.43-0.55-0.64-0.82c-0.07-0.09-0.13-0.17-0.2-0.26
								c-0.25-0.33-0.5-0.67-0.74-1.01c-0.02-0.03-0.04-0.05-0.06-0.08c-0.22-0.31-0.44-0.62-0.65-0.94
								c-0.06-0.09-0.13-0.19-0.19-0.28c-0.19-0.29-0.38-0.57-0.57-0.86c-0.03-0.06-0.07-0.12-0.11-0.17
								c-0.21-0.34-0.42-0.68-0.63-1.01c-0.06-0.1-0.11-0.19-0.17-0.29c-0.16-0.26-0.31-0.53-0.46-0.79
								c-0.05-0.1-0.11-0.19-0.16-0.28c-0.19-0.34-0.37-0.68-0.55-1.01c-0.04-0.08-0.08-0.15-0.12-0.23
								c-0.15-0.28-0.29-0.55-0.43-0.83c-0.05-0.1-0.11-0.21-0.16-0.31c-0.16-0.33-0.32-0.66-0.47-0.99
								c-0.01-0.03-0.02-0.05-0.03-0.08c-0.16-0.34-0.31-0.68-0.46-1.02c-0.05-0.11-0.09-0.21-0.13-0.32
								c-0.12-0.28-0.24-0.56-0.35-0.84c-0.03-0.08-0.07-0.16-0.1-0.24c-0.14-0.34-0.27-0.69-0.4-1.03c-0.04-0.1-0.07-0.2-0.11-0.29
								c-0.08-0.21-0.15-0.41-0.23-0.63c-0.17-0.46-0.32-0.92-0.47-1.38c-0.01-0.05-0.03-0.09-0.05-0.14
								c-0.16-0.5-0.32-1.01-0.46-1.51c-0.04-0.13-0.07-0.26-0.11-0.39c-0.11-0.41-0.22-0.81-0.33-1.22
								c-0.03-0.12-0.06-0.24-0.09-0.35c-0.13-0.5-0.24-1-0.36-1.51c-0.02-0.1-0.04-0.19-0.06-0.28c-0.09-0.41-0.18-0.84-0.26-1.25
								c-0.03-0.14-0.05-0.28-0.08-0.42c-0.09-0.47-0.17-0.95-0.25-1.42c0-0.03-0.01-0.06-0.01-0.09c-0.08-0.5-0.15-1-0.22-1.5
								c-0.02-0.14-0.04-0.28-0.05-0.43c-0.05-0.39-0.1-0.79-0.13-1.18c-0.01-0.12-0.03-0.23-0.04-0.35
								c-0.05-0.49-0.09-0.98-0.13-1.47c-0.01-0.11-0.02-0.22-0.02-0.33c-0.03-0.4-0.05-0.8-0.07-1.19
								c-0.01-0.14-0.02-0.28-0.02-0.41c-0.02-0.49-0.04-0.98-0.05-1.47c0-0.01,0-0.03,0-0.03c-0.01-0.48-0.01-0.96-0.02-1.44
								c0-0.13,0-0.27,0-0.4c0-0.4,0.01-0.8,0.02-1.2c0-0.1,0-0.19,0-0.28c0.01-0.48,0.03-0.96,0.05-1.43
								c0-0.11,0.01-0.22,0.02-0.32c0.02-0.39,0.04-0.77,0.07-1.16c0.01-0.12,0.02-0.24,0.03-0.36c0.03-0.47,0.07-0.94,0.11-1.41
								c0-0.03,0.01-0.07,0.01-0.1c0.04-0.43,0.09-0.87,0.13-1.3c0.01-0.13,0.03-0.25,0.04-0.37c0.04-0.39,0.09-0.78,0.14-1.17
								c0.01-0.07,0.02-0.14,0.03-0.21c0.01-0.11,0.03-0.22,0.04-0.32c0.07-0.55,0.15-1.09,0.23-1.64c0.03-0.17,0.06-0.36,0.09-0.53
								c0.09-0.56,0.18-1.11,0.28-1.65c0.02-0.07,0.03-0.15,0.04-0.21c0.11-0.6,0.23-1.2,0.35-1.8c0.03-0.16,0.07-0.32,0.1-0.49
								c0.1-0.47,0.2-0.94,0.31-1.4c0.03-0.13,0.06-0.27,0.09-0.4c0.13-0.57,0.27-1.12,0.4-1.67c0.03-0.13,0.06-0.25,0.1-0.37
								c0.11-0.45,0.23-0.89,0.34-1.32c0.04-0.14,0.08-0.29,0.12-0.44c0.15-0.53,0.29-1.05,0.44-1.55c0.01-0.04,0.02-0.08,0.03-0.11
								c0.14-0.48,0.28-0.94,0.43-1.4c0.05-0.15,0.1-0.3,0.14-0.45c0.08-0.26,0.16-0.52,0.25-0.77c0.05-0.16,0.1-0.31,0.15-0.47
								c0.09-0.26,0.17-0.52,0.26-0.77c0.04-0.13,0.09-0.27,0.14-0.4c0.13-0.36,0.25-0.71,0.37-1.06c0-0.02,0.01-0.03,0.02-0.05
								c0.14-0.38,0.27-0.74,0.4-1.1c0.01-0.02,0.01-0.03,0.02-0.05c0.13-0.34,0.25-0.68,0.38-1c0.01-0.03,0.02-0.05,0.03-0.08
								c0.13-0.32,0.25-0.64,0.37-0.94c0-0.01,0.01-0.02,0.01-0.03c0.13-0.31,0.25-0.62,0.37-0.92l0,0c0.12-0.3,0.24-0.58,0.36-0.85
								c0-0.01,0-0.01,0.01-0.02c0.05-0.12,0.1-0.24,0.15-0.35c0.01-0.02,0.02-0.05,0.03-0.07c0.04-0.1,0.09-0.2,0.13-0.3
								c0.01-0.02,0.02-0.05,0.03-0.08c0.04-0.09,0.08-0.18,0.12-0.27c0.01-0.03,0.02-0.06,0.04-0.09c0.05-0.11,0.1-0.21,0.14-0.31
								c0.02-0.04,0.04-0.07,0.05-0.11c0.03-0.06,0.06-0.13,0.09-0.19c0.02-0.05,0.04-0.09,0.06-0.14c0.02-0.05,0.05-0.09,0.07-0.14
								c0.02-0.05,0.04-0.09,0.06-0.14c0.02-0.05,0.04-0.09,0.07-0.13c0.02-0.04,0.03-0.07,0.05-0.11c0.03-0.06,0.05-0.11,0.08-0.17
								c0.01-0.03,0.02-0.05,0.03-0.07c0.02-0.05,0.05-0.1,0.07-0.15c0.01-0.03,0.03-0.07,0.04-0.1c0,0,0,0,0-0.01
								c0.25-0.52,0.42-0.87,0.51-1.04l1.18-13.38c-0.04,0.09-0.11,0.22-0.19,0.39c0,0.01-0.01,0.02-0.01,0.03
								c-0.02,0.04-0.05,0.09-0.07,0.14c-0.01,0.02-0.02,0.04-0.03,0.07c-0.02,0.04-0.04,0.09-0.06,0.12
								c-0.02,0.03-0.03,0.06-0.04,0.09c-0.02,0.05-0.05,0.1-0.07,0.15c-0.01,0.03-0.03,0.06-0.04,0.09
								c-0.04,0.08-0.08,0.16-0.12,0.25c-0.01,0.02-0.02,0.05-0.04,0.08c-0.03,0.07-0.07,0.15-0.11,0.22c0,0.01,0,0.01-0.01,0.02
								c-0.01,0.01-0.02,0.03-0.02,0.04c-0.04,0.08-0.08,0.17-0.12,0.26c-0.01,0.02-0.02,0.04-0.03,0.06
								c-0.04,0.09-0.08,0.18-0.13,0.28c-0.01,0.03-0.02,0.05-0.03,0.07c-0.05,0.09-0.09,0.19-0.13,0.29
								c-0.01,0.03-0.02,0.06-0.04,0.08c-0.04,0.1-0.09,0.2-0.13,0.3c-0.01,0.03-0.03,0.06-0.04,0.1c-0.06,0.13-0.11,0.26-0.17,0.39
								c-0.03,0.07-0.06,0.14-0.09,0.21c-0.03,0.07-0.06,0.13-0.09,0.2c-0.04,0.08-0.07,0.17-0.11,0.25
								c-0.03,0.06-0.05,0.12-0.08,0.18c-0.04,0.09-0.08,0.19-0.12,0.28c-0.02,0.06-0.05,0.11-0.07,0.17
								c-0.02,0.06-0.04,0.11-0.07,0.16c-0.02,0.04-0.04,0.09-0.06,0.13c-0.02,0.06-0.05,0.13-0.08,0.19
								c-0.04,0.1-0.08,0.19-0.12,0.29c-0.03,0.07-0.06,0.14-0.09,0.21c-0.04,0.1-0.08,0.19-0.12,0.3
								c-0.04,0.09-0.07,0.18-0.11,0.26c-0.06,0.15-0.12,0.3-0.19,0.46c-0.04,0.11-0.09,0.21-0.13,0.33
								c-0.03,0.08-0.07,0.16-0.1,0.24c-0.04,0.12-0.09,0.23-0.13,0.34c-0.03,0.08-0.06,0.16-0.1,0.24
								c-0.05,0.12-0.09,0.24-0.14,0.36c-0.03,0.08-0.06,0.17-0.09,0.25c-0.05,0.13-0.1,0.26-0.15,0.39
								c-0.03,0.08-0.05,0.15-0.08,0.22c-0.06,0.15-0.11,0.31-0.17,0.46c-0.02,0.05-0.03,0.09-0.05,0.13c0,0.01-0.01,0.02-0.01,0.03
								c-0.16,0.44-0.33,0.9-0.5,1.36c-0.01,0.03-0.02,0.06-0.03,0.09c-0.13,0.37-0.27,0.75-0.4,1.14c-0.02,0.05-0.03,0.1-0.05,0.15
								c-0.07,0.18-0.13,0.38-0.19,0.56c-0.1,0.3-0.2,0.59-0.31,0.9c-0.07,0.21-0.14,0.42-0.21,0.63c-0.1,0.3-0.19,0.6-0.29,0.9
								c-0.04,0.13-0.08,0.24-0.12,0.37c-0.05,0.16-0.1,0.33-0.15,0.49c-0.03,0.1-0.06,0.2-0.09,0.29
								c-0.14,0.45-0.28,0.91-0.41,1.37c0,0.02-0.01,0.03-0.01,0.05c-0.13,0.44-0.26,0.89-0.38,1.34c-0.03,0.11-0.07,0.23-0.1,0.35
								c-0.12,0.42-0.23,0.83-0.34,1.25c-0.02,0.07-0.04,0.13-0.05,0.2c-0.13,0.49-0.26,0.98-0.38,1.47
								c-0.03,0.11-0.05,0.22-0.08,0.33c-0.1,0.41-0.2,0.82-0.3,1.23c-0.03,0.12-0.06,0.24-0.09,0.36
								c-0.12,0.51-0.24,1.03-0.35,1.55c-0.01,0.06-0.02,0.12-0.04,0.18c-0.1,0.46-0.2,0.93-0.29,1.41
								c-0.03,0.14-0.06,0.28-0.09,0.42c-0.09,0.48-0.19,0.96-0.28,1.45c-0.01,0.06-0.02,0.12-0.03,0.19
								c-0.1,0.54-0.2,1.09-0.29,1.64c-0.02,0.13-0.04,0.26-0.07,0.4c-0.07,0.45-0.14,0.9-0.21,1.36c-0.02,0.13-0.04,0.26-0.06,0.39
								c-0.07,0.52-0.15,1.05-0.22,1.58c0,0.04-0.01,0.08-0.01,0.12c-0.01,0.09-0.02,0.17-0.03,0.25c-0.06,0.5-0.12,0.99-0.18,1.49
								c-0.01,0.15-0.03,0.3-0.05,0.45c-0.06,0.55-0.11,1.1-0.17,1.66c0,0.03-0.01,0.05-0.01,0.08c0,0.01,0,0.01,0,0.02
								c-0.06,0.59-0.1,1.18-0.14,1.78c-0.01,0.15-0.02,0.3-0.03,0.44c-0.03,0.48-0.06,0.97-0.08,1.45
								c-0.01,0.13-0.01,0.27-0.02,0.4c-0.03,0.59-0.05,1.19-0.06,1.8c0,0.12,0,0.23-0.01,0.35c-0.01,0.5-0.02,1-0.02,1.5
								c0,0.16,0,0.33,0,0.5c0,0.6,0.01,1.21,0.02,1.81c0,0.01,0,0.03,0,0.03c0.02,0.61,0.04,1.23,0.07,1.85
								c0.01,0.17,0.01,0.33,0.02,0.5c0.03,0.5,0.06,1.01,0.09,1.51c0.01,0.14,0.02,0.27,0.03,0.4c0.05,0.62,0.1,1.23,0.16,1.85
								c0.02,0.14,0.03,0.28,0.05,0.42c0.05,0.5,0.11,1.01,0.17,1.51c0.02,0.17,0.04,0.34,0.06,0.51c0.02,0.12,0.03,0.24,0.05,0.36
								c0.07,0.51,0.14,1.02,0.23,1.52c0,0.03,0.01,0.06,0.01,0.09c0.09,0.6,0.2,1.2,0.31,1.8c0.04,0.18,0.07,0.35,0.1,0.52
								c0.1,0.52,0.21,1.04,0.32,1.56c0.02,0.12,0.05,0.24,0.08,0.37c0.14,0.62,0.29,1.25,0.44,1.88c0.04,0.16,0.08,0.31,0.12,0.46
								c0.13,0.5,0.26,1,0.4,1.5c0.05,0.17,0.1,0.34,0.14,0.51c0.18,0.63,0.37,1.26,0.58,1.88c0.02,0.07,0.05,0.14,0.07,0.22
								c0.18,0.56,0.37,1.12,0.58,1.68c0.03,0.09,0.06,0.17,0.09,0.26c0.07,0.19,0.14,0.39,0.21,0.58c0.04,0.1,0.08,0.21,0.12,0.31
								c0.17,0.44,0.34,0.89,0.52,1.33c0.03,0.08,0.07,0.16,0.1,0.25c0.15,0.36,0.31,0.74,0.46,1.1c0.05,0.12,0.1,0.23,0.15,0.35
								c0.19,0.45,0.39,0.89,0.6,1.33c0,0,0,0.01,0.01,0.01c0.2,0.43,0.41,0.87,0.63,1.31c0.06,0.12,0.12,0.24,0.17,0.36
								c0.19,0.36,0.37,0.73,0.56,1.1c0.04,0.08,0.08,0.16,0.13,0.24c0.23,0.43,0.47,0.87,0.71,1.3c0.02,0.04,0.04,0.07,0.06,0.1
								c0.04,0.07,0.08,0.14,0.12,0.21c0.2,0.35,0.4,0.69,0.6,1.04c0.06,0.11,0.13,0.22,0.2,0.33c0.26,0.43,0.52,0.86,0.79,1.28
								c0.04,0.07,0.09,0.13,0.13,0.2c0.23,0.37,0.48,0.74,0.72,1.1c0.08,0.12,0.16,0.23,0.24,0.35c0.27,0.39,0.54,0.79,0.82,1.18
								c0.02,0.03,0.05,0.07,0.07,0.1c0.3,0.42,0.61,0.84,0.93,1.26c0.08,0.11,0.17,0.22,0.25,0.33c0.26,0.34,0.52,0.68,0.79,1.02
								c0.07,0.09,0.14,0.18,0.21,0.27c0.33,0.41,0.67,0.83,1.01,1.24c0.07,0.09,0.15,0.18,0.22,0.26c0.29,0.34,0.57,0.68,0.87,1.01
								c0.09,0.11,0.18,0.21,0.28,0.32c0.36,0.41,0.73,0.82,1.11,1.23c0.03,0.03,0.07,0.06,0.1,0.1c0.35,0.37,0.7,0.74,1.07,1.11
								c0.11,0.1,0.21,0.21,0.32,0.32c0.34,0.35,0.7,0.7,1.05,1.04c0.05,0.06,0.11,0.11,0.17,0.16c0.41,0.39,0.83,0.79,1.25,1.18
								c0.11,0.1,0.22,0.19,0.33,0.29c0.35,0.32,0.7,0.63,1.05,0.94c0.11,0.1,0.21,0.19,0.31,0.28c0.44,0.39,0.89,0.77,1.35,1.14
								c0.09,0.07,0.18,0.14,0.26,0.22c0.38,0.32,0.78,0.63,1.17,0.94c0.13,0.11,0.26,0.21,0.39,0.31c0.48,0.38,0.97,0.75,1.47,1.12
								L469.62,750.12z"/>
							
								<radialGradient id="SVGID_00000121268196902966820890000007389917558512259217_" cx="111.9951" cy="2230.6782" r="146.6078" gradientTransform="matrix(-0.565 0.8251 -0.8251 -0.565 2335.7314 1867.9967)" gradientUnits="userSpaceOnUse">
								<stop  offset="5.494510e-03" style="stop-color:#FFFFFF"/>
								<stop  offset="0.1264" style="stop-color:#04BFFF"/>
								<stop  offset="0.1505" style="stop-color:#04A3DF"/>
								<stop  offset="0.187" style="stop-color:#047FB5"/>
								<stop  offset="0.2255" style="stop-color:#045F90"/>
								<stop  offset="0.2657" style="stop-color:#044673"/>
								<stop  offset="0.3081" style="stop-color:#04325C"/>
								<stop  offset="0.3536" style="stop-color:#04244C"/>
								<stop  offset="0.4047" style="stop-color:#041C42"/>
								<stop  offset="0.4725" style="stop-color:#04193F"/>
							</radialGradient>
							<path style="fill:url(#SVGID_00000121268196902966820890000007389917558512259217_);" d="M456.16,766.12c0,0,0,0-1.95-1.42
								c0,0-22.13,23.52-31.87-6.81c-1.84-6.47-2.55-12.92-2.46-19.15c0.13-8.94,1.89-17.44,4.28-24.93
								c2.39-7.5,5.4-13.98,8.03-18.91c2.63-4.93,4.89-8.29,5.75-9.54c0.06-0.09,0.12-0.17,0.16-0.23c0.04-0.07,0.08-0.12,0.12-0.16
								c0.03-0.05,0.06-0.08,0.07-0.11c0.02-0.02,0.03-0.03,0.03-0.03c-3.35,14.98-3.59,27.72-2.02,38.39
								c1.56,10.69,4.92,19.32,8.76,26.12c3.84,6.8,8.15,11.77,11.63,15.11c3.48,3.35,6.11,5.07,6.59,5.38l18.18-14l-7.27,1.86
								c-12.57-9.34-20.02-20.31-24.09-31.56c-4.07-11.25-4.76-22.77-3.83-33.24c0.93-10.46,3.48-19.86,5.91-26.85
								c2.43-6.99,4.72-11.58,5.14-12.41c-4.21,2.27-8.08,4.65-11.64,7.1c-3.56,2.46-6.82,5.01-9.8,7.62
								c-2.98,2.61-5.67,5.29-8.1,8.01c-2.43,2.72-4.61,5.49-6.55,8.28c-6.35,9.14-10.24,18.41-12.49,27.22
								c-2.25,8.81-2.86,17.15-2.66,24.42c0.21,7.26,1.23,13.45,2.25,17.94c0.05,0.23,0.1,0.45,0.15,0.66l0,0
								C408.49,754.91,415.73,804,456.16,766.12z"/>
						</g>
					</g>
				</g>
			</g>
		</g>
	</g>
	<path class="st15" d="M491.74,709.56l7.56-7.72l7.21,7.9l-7.62,7.65l-23.57-25.8c-3.66-4.01-10.07-1.32-10.16,4.26l-0.34,21.56
		c-0.08,4.93,5,8.02,8.98,5.46l3.48-2.23c1.16-0.74,2.64,0.16,2.62,1.59l-0.19,12.49l5.19-5.63l0.17-10.78
		c0.06-3.61-3.5-6.02-6.57-4.44l-5.85,3c-1.26,0.64-2.71-0.34-2.69-1.82l0.18-13.35c0.02-1.78,2.07-2.63,3.23-1.35l20.72,22.13
		l-11.94,12.63c-3.73,3.94-1.1,10.69,4.17,10.7l20.35,0.03c4.65,0.01,7.49-5.42,5.02-9.59l-2.16-3.65c-0.72-1.22,0.11-2.8,1.46-2.8
		l11.79,0.02l-5.39-5.41l-10.18-0.01c-3.41,0-5.62,3.8-4.09,7.02l2.92,6.16c0.63,1.32-0.28,2.88-1.67,2.88l-12.6,0.02
		c-1.68,0-2.51-2.15-1.32-3.4l20.97-22.1l11.64,12.4c3.72,3.96,10.09,1.18,10.11-4.4l0.06-21.57c0.01-4.93-5.1-7.94-9.04-5.34
		l-3.45,2.28c-1.15,0.76-2.64-0.12-2.64-1.56l0.04-12.49l-5.12,5.7l-0.03,10.78c-0.01,3.61,3.58,5.96,6.62,4.35l5.82-3.09
		c1.25-0.66,2.72,0.3,2.72,1.78l-0.01,13.35c0,1.78-2.03,2.66-3.21,1.4l-20.59-22.05l11.77-12.49c3.72-3.95,1.08-10.69-4.18-10.69
		h-20.35c-4.65,0-7.48,5.43-5.01,9.6l2.16,3.65c0.72,1.22-0.1,2.8-1.46,2.8h-11.79l5.4,5.4h10.18c3.41,0,5.62-3.81,4.08-7.03
		l-2.93-6.15c-0.63-1.32,0.27-2.88,1.67-2.88l12.6-0.03c1.68,0,2.52,2.15,1.33,3.4l-20.96,22.1"/>
	
		<radialGradient id="SVGID_00000168826122438035914840000008295374268487060399_" cx="499.7726" cy="709.5919" r="34.0612" gradientUnits="userSpaceOnUse">
		<stop  offset="5.494510e-03" style="stop-color:#FFFFFF"/>
		<stop  offset="0.1648" style="stop-color:#04BFFF"/>
		<stop  offset="0.204" style="stop-color:#04AEEC"/>
		<stop  offset="0.3201" style="stop-color:#0481B8"/>
		<stop  offset="0.4342" style="stop-color:#045C8C"/>
		<stop  offset="0.5438" style="stop-color:#043F6B"/>
		<stop  offset="0.6477" style="stop-color:#042A53"/>
		<stop  offset="0.7437" style="stop-color:#041D44"/>
		<stop  offset="0.8242" style="stop-color:#04193F"/>
	</radialGradient>
	<path style="fill:url(#SVGID_00000168826122438035914840000008295374268487060399_);stroke:#231F20;stroke-miterlimit:10;" d="
		M492.68,709.56l7.36-7.41l7.02,7.59l-7.42,7.34l-22.94-24.78c-3.57-3.85-9.8-1.27-9.89,4.09l-0.33,20.71
		c-0.07,4.73,4.86,7.7,8.74,5.25l3.39-2.14c1.13-0.71,2.57,0.15,2.55,1.53l-0.19,12l5.05-5.4l0.16-10.35
		c0.05-3.47-3.41-5.78-6.39-4.27l-5.7,2.88c-1.22,0.62-2.64-0.32-2.62-1.75l0.17-12.82c0.02-1.71,2.01-2.53,3.14-1.3l20.16,21.25
		l-11.62,12.13c-3.63,3.79-1.07,10.27,4.06,10.28l19.81,0.03c4.53,0.01,7.29-5.2,4.88-9.21l-2.1-3.51c-0.7-1.17,0.1-2.69,1.42-2.69
		l11.47,0.02l-5.24-5.2l-9.9-0.01c-3.32,0-5.47,3.65-3.98,6.75l2.85,5.91c0.61,1.27-0.27,2.77-1.63,2.77l-12.26,0.01
		c-1.63,0-2.45-2.06-1.29-3.27l20.41-21.22l11.33,11.91c3.62,3.8,9.82,1.13,9.84-4.23l0.06-20.71c0.01-4.73-4.96-7.63-8.8-5.12
		l-3.36,2.19c-1.12,0.73-2.57-0.11-2.57-1.49l0.04-12l-4.98,5.47l-0.03,10.35c-0.01,3.47,3.48,5.73,6.44,4.18l5.66-2.96
		c1.21-0.64,2.64,0.29,2.64,1.71l-0.01,12.82c0,1.71-1.98,2.55-3.12,1.34l-20.03-21.18l11.46-11.99c3.62-3.79,1.05-10.27-4.07-10.27
		h-19.81c-4.53,0-7.28,5.21-4.87,9.22l2.11,3.51c0.7,1.17-0.1,2.69-1.42,2.69h-11.47l5.25,5.19h9.9c3.32,0,5.47-3.66,3.97-6.75
		l-2.85-5.91c-0.61-1.27,0.27-2.77,1.63-2.77l12.26-0.03c1.63,0,2.45,2.06,1.29,3.26l-20.4,21.23"/>
</g>
<text transform="matrix(1 0 0 1 606.1737 743.7588)" class="st17 st18 st19"></text>
<g>
	<g>
		<path class="st20" d="M731.27,676.72h0.95v8.46h4.93l-0.15,0.84h-5.73V676.72z"/>
		<path class="st20" d="M743.58,684.06c0,0.65,0.01,1.64,0.01,1.96h-0.86c-0.03-0.18-0.04-0.6-0.04-1.09
			c-0.3,0.77-0.97,1.25-2.1,1.25c-1.04,0-2.21-0.46-2.21-2.44v-4.42h0.88v4.22c0,0.93,0.29,1.82,1.52,1.82c1.38,0,1.9-0.77,1.9-2.58
			v-3.47h0.89V684.06z"/>
		<path class="st20" d="M750.77,684.01c-0.3,1.17-1.08,2.17-2.68,2.17c-1.75,0-2.92-1.28-2.92-3.48c0-1.86,1.02-3.54,3.01-3.54
			c1.81,0,2.49,1.28,2.6,2.19h-0.89c-0.19-0.73-0.66-1.41-1.72-1.41c-1.31,0-2.06,1.12-2.06,2.73c0,1.56,0.71,2.73,2,2.73
			c0.91,0,1.46-0.47,1.77-1.38H750.77z"/>
		<path class="st20" d="M753.14,682.66c0.59-0.66,2.29-2.4,3.19-3.34h1.1l-2.59,2.64l2.91,4.06h-1.07l-2.46-3.49l-1.07,1.03v2.46
			h-0.89v-9.8h0.89V682.66z"/>
		<path class="st20" d="M758.8,679.32c1.23,3.55,1.82,5.22,2.03,5.93h0.01c0.25-0.79,0.75-2.34,1.96-5.93h0.91l-2.47,7.06
			c-0.7,1.97-1.19,2.44-2.47,2.44c-0.23,0-0.43-0.01-0.66-0.04v-0.82c0.19,0.02,0.38,0.04,0.58,0.04c0.91,0,1.23-0.43,1.68-1.69
			l-2.54-6.98H758.8z"/>
		<path class="st20" d="M769.67,683l-1.1,3.02h-0.95l3.37-9.3h1.15l3.51,9.3h-1.02l-1.13-3.02H769.67z M773.22,682.16
			c-0.97-2.62-1.48-3.93-1.67-4.6h-0.01c-0.23,0.74-0.8,2.36-1.58,4.6H773.22z"/>
		<path class="st20" d="M777,681.01c0-0.59,0-1.16-0.01-1.69h0.87c0.03,0.21,0.04,1,0.04,1.2c0.28-0.63,0.83-1.36,2.17-1.36
			c1.22,0,2.25,0.72,2.25,2.53v4.33h-0.89v-4.2c0-1.11-0.45-1.84-1.55-1.84c-1.44,0-1.98,1.16-1.98,2.57v3.48H777V681.01z"/>
		<path class="st20" d="M783.46,679.32h1.21v-2.04h0.89v2.04h1.54v0.77h-1.54v4.16c0,0.71,0.16,1.09,0.79,1.09
			c0.18,0,0.45-0.01,0.65-0.07v0.72c-0.25,0.1-0.61,0.12-0.91,0.12c-0.94,0-1.42-0.48-1.42-1.57v-4.45h-1.21V679.32z"/>
		<path class="st20" d="M793.95,677.56h-3.07v-0.84h7.11v0.84h-3.08v8.46h-0.96V677.56z"/>
		<path class="st20" d="M799.13,681.14c0-1.04-0.01-1.54-0.01-1.82h0.88c0.02,0.2,0.03,0.68,0.03,1.44c0.37-0.96,1.2-1.56,2.3-1.6
			v0.92c-1.38,0.07-2.3,0.92-2.3,2.56v3.38h-0.89V681.14z"/>
		<path class="st20" d="M808.39,684.66c0,0.6,0.05,1.16,0.09,1.36h-0.85c-0.05-0.16-0.09-0.46-0.12-0.96
			c-0.23,0.47-0.79,1.12-2.14,1.12c-1.57,0-2.24-1.02-2.24-2.03c0-1.48,1.16-2.16,3.16-2.16c0.52,0,0.95,0,1.21,0v-0.63
			c0-0.63-0.2-1.45-1.6-1.45c-1.25,0-1.44,0.64-1.58,1.18h-0.88c0.08-0.82,0.59-1.93,2.48-1.93c1.58,0,2.46,0.66,2.46,2.15V684.66z
			 M807.52,682.67c-0.24,0-0.8,0-1.21,0c-1.42,0-2.25,0.38-2.25,1.44c0,0.78,0.55,1.32,1.43,1.32c1.78,0,2.02-1.19,2.02-2.53V682.67
			z"/>
		<path class="st20" d="M815.86,676.22v7.89c0,0.64,0,1.25,0.01,1.91h-0.86c-0.03-0.17-0.05-0.75-0.05-1.05
			c-0.33,0.76-1.05,1.21-2.19,1.21c-1.73,0-2.79-1.41-2.79-3.44c0-2.06,1.14-3.59,2.98-3.59c1.27,0,1.8,0.53,1.99,0.94v-3.88H815.86
			z M810.92,682.71c0,1.74,0.87,2.68,1.98,2.68c1.68,0,2.1-1.19,2.1-2.85c0-1.62-0.37-2.59-1.99-2.59
			C811.75,679.95,810.92,680.95,810.92,682.71z"/>
		<path class="st20" d="M817.94,676.22h0.89v1.37h-0.89V676.22z M817.94,679.32h0.89v6.7h-0.89V679.32z"/>
		<path class="st20" d="M820.94,681.01c0-0.59,0-1.16-0.01-1.69h0.87c0.03,0.21,0.04,1,0.04,1.2c0.28-0.63,0.83-1.36,2.17-1.36
			c1.22,0,2.25,0.72,2.25,2.53v4.33h-0.89v-4.2c0-1.11-0.45-1.84-1.55-1.84c-1.44,0-1.98,1.16-1.98,2.57v3.48h-0.89V681.01z"/>
		<path class="st20" d="M833.65,685.5c0,2.15-0.92,3.32-2.98,3.32c-1.88,0-2.55-1.05-2.7-2.02h0.91c0.22,0.84,0.91,1.26,1.82,1.26
			c1.64,0,2.08-1.05,2.08-2.68v-0.63c-0.36,0.82-1,1.27-2.17,1.27c-1.61,0-2.78-1.31-2.78-3.33c0-2.22,1.28-3.52,2.88-3.52
			c1.33,0,1.9,0.62,2.07,1.12c0.01-0.35,0.03-0.81,0.05-0.96h0.84c0,0.31-0.03,1.3-0.03,1.94V685.5z M828.77,682.63
			c0,1.51,0.79,2.58,1.99,2.58c1.57,0,2.04-1.05,2.04-2.67c0-1.65-0.47-2.59-2-2.59C829.4,679.95,828.77,681.14,828.77,682.63z"/>
	</g>
</g>
<line class="st21" x1="609.51" y1="683.23" x2="720.75" y2="683.23"/>
</svg>
